<svg width="472" height="156" viewBox="0 0 472 156" fill="none" xmlns="http://www.w3.org/2000/svg">
<path d="M25.5 34L472 34L447.5 107L2.82628e-07 107L25.5 34Z" fill="#FF595F"/>
<path d="M279.647 112.622L279.578 112.48L279.781 111.762L279.431 111.194L279.476 110.601L279.663 110.046L279.561 109.916L279.199 110.062L278.736 109.92L278.341 109.283L278.211 108.792L278.301 107.904L278.988 106.699L279.509 106.759L280.184 106.557L280.786 106.098L280.777 106.329L281.257 106.682L281.245 106.946L281.449 107.031L281.412 107.226L281.522 107.356L281.652 107.417L281.774 107.331L282.156 107.49L282.368 107.778L282.713 107.709L283.088 107.413L283.344 107.409L283.649 107.599L283.62 107.697L283.962 107.717L283.954 107.843L284.357 108.045L285.056 107.478L285.381 107.445L285.251 107.782L285.512 108.11L285.507 108.317L286.02 108.212L286.366 107.989L287 108.11L287.09 108.269L287.431 108.159L287.305 108.557L287.517 108.76L287.281 108.991L287.313 109.181L287.126 109.279L286.532 110.09L286.52 110.52L286 111.303L284.881 111.924L284.706 112.423L284.771 113.364L283.384 113.685L281.989 114.184L281.164 114.293L281.058 114.208L281.383 113.514L281.583 113.535L281.684 113.766L282.644 113.352L282.994 113.137L282.953 112.959L283.136 112.812L283.332 112.873L283.421 112.796L283.506 112.334L283.275 112.05L282.587 111.924L282.376 112.111L282.278 112.488L281.949 112.257L281.083 112.358L280.505 111.802L280.631 111.364L280.452 111.287L280.281 111.526L280.172 112.427L280.586 112.804L280.647 113.161L279.96 112.918L279.647 112.622Z" fill="black"/>
<path d="M305.371 62.9362L305.09 61.8205L304.525 61.1633L304.732 60.8346L305.033 60.928L305.277 61.289L305.355 60.8265L305.249 60.6602L305.412 60.4127L305.489 59.8447L305.351 59.2727L304.915 59.0942L304.732 59.2686L304.513 59.5973L304.265 60.433L304.484 60.6034L304.452 61.1146L304.147 60.9969L303.785 61.0578L303.707 61.1592L303.777 61.504L302.923 61.4675L302.532 60.721L302.443 60.1936L302.5 59.8975L303.285 60.433L303.557 60.3478L304.159 59.7555L304.513 59.1185L304.838 58.1489L305.082 56.9318L305.094 56.2543L304.395 55.52L304.602 55.4753L305.062 55.6173L305.168 55.2644L305.481 55.1224L305.7 55.2522L305.786 55.451L306.388 55.3983L306.717 55.5119L307.266 55.3577L307.616 55.4307L307.819 55.025L308.352 54.9804L308.462 55.3212H308.787L309.255 55.804L309.662 55.4632L310.17 55.804L310.491 55.5484L310.8 55.5281L311.093 55.2766L311.382 55.3171L311.48 54.879L311.98 54.6802L311.915 55.6336L312.781 55.5403L312.895 56.2867L312.728 56.3963L312.525 56.8912L312.582 57.4227L312.419 57.654L312.171 57.7432L311.842 58.1935L312.004 58.3923L311.943 59.0252L311.732 59.2118L311.711 60.2991L311.964 61.3134L311.736 61.3864L311.537 61.1917L311.203 61.3742L311.232 61.8043L311.687 62.072L311.354 62.6684L311.195 62.7252L311.463 63.1999L311.516 63.638L311.309 64.1208L311.199 64.1086L310.951 64.4575L310.78 64.5022L310.866 64.7943L310.691 65.3379L310.373 65.6828L310.394 66.0114L310.211 66.06L310.19 66.3238L310.349 66.3603L310.593 66.8674L310.532 67.2406L310.748 67.5449L311.203 67.8573L311.069 68.2873L311.415 68.4658L311.171 68.5876L310.979 68.9243L311.089 69.0135L310.975 69.4071L311.37 69.5612L311.427 69.7235L311.105 70.2793L311.138 70.7459L310.849 70.8148L310.182 71.4518L309.466 71.5979L309.357 71.5248L309.259 71.3423L308.641 71.1272L308.405 70.397L307.974 70.3645L307.831 70.0521L307.392 70.1617L306.14 69.7803L305.818 69.4963L305.53 69.4233L305.448 68.9486L305.05 69.046L304.899 69.2326L303.878 69.0663L304.155 68.4699L304.061 68.0926L304.22 67.7762L304.204 67.5611L304.362 67.3137L304.647 67.269L305.029 66.2994L305.355 64.5995L305.371 62.9362Z" fill="black"/>
<path d="M313.965 50.8615L314.339 50.5248L314.575 50.0988L314.806 49.3482L314.9 48.3543L315.14 47.8918L314.847 47.056L314.497 46.6341L314.176 46.6017L313.83 47.2548L313.371 47.5835L312.753 47.4131L312.48 47.6768L311.744 47.8147L311.398 48.1677L311.02 47.977L311.301 46.1148L311.471 45.8471L311.598 45.1006L312.179 44.277L312.09 43.9443L312.212 43.7212L312.911 44.3581L313.448 44.4028L313.81 44.6056L314.449 45.4048L315.042 45.7497L315.404 45.7943L315.811 45.6442L316.641 44.9667L316.035 47.7457L315.994 49.8107L316.218 52.0624L316.775 54.0341L317.255 54.4763L317.527 54.3181L317.621 54.5412L318.398 55.308L318.207 55.5271L317.641 55.7786L317.596 56.1153L317.235 56.3952L316.73 56.0829L316.454 56.1194L315.754 56.5656L315.478 56.1275L314.68 56.732L314.062 56.8861L313.761 57.089L313.745 57.3811L313.558 57.3892L313.151 57.7057L312.769 57.7016L312.582 57.4257L312.525 56.8943L312.728 56.3993L312.895 56.2898L312.781 55.5433L311.915 55.6366L311.98 54.6832L311.48 54.882L311.382 55.3201L311.093 55.2796L310.8 55.5311L310.491 55.5514L310.17 55.807L309.662 55.4662L309.255 55.807L308.787 55.3242H308.462L308.352 54.9834L307.819 55.028L307.616 55.4337L307.266 55.3607L306.717 55.5149L306.388 55.4013L305.786 55.454L305.7 55.2552L305.481 55.1254L305.168 55.2674L305.062 55.6204L304.602 55.4784L304.395 55.523L304.501 54.8008L304.423 54.2166L304.24 53.8677L303.85 53.888L303.789 53.5554L304.513 52.9793L304.928 52.249L305.192 52.0705L305.44 51.9691L305.94 52.249L306.522 51.8149L306.851 51.7743L307.022 51.5268L307.437 50.0623L307.465 48.5206L307.185 48.2163L306.9 48.1839L306.969 48.0257L307.327 48.119L307.482 47.9445L307.644 46.7477L308.088 47.0276L308.36 47.4293L308.62 47.5753L308.893 47.4983L309.3 47.0885L309.743 47.2427L310.007 47.5348L309.963 48.4557L310.121 49.4781L310.418 50.8088L310.796 51.2915L311.337 51.2469L311.821 50.7276L311.911 50.5004L311.821 49.9974L311.955 49.4091L312.561 49.6282L312.838 50.0177L312.765 50.2408L313.062 50.2367L313.436 50.4193L313.651 50.7763L313.965 50.8615Z" fill="black"/>
<path d="M303.606 106.634L303.663 106.549L304.054 106.719L304.212 106.528L304.09 106.236L304.127 106.001L304.676 105.847L304.627 105.64L304.741 105.587L304.839 105.741L305.453 104.865L305.685 105.048L305.778 104.906L305.559 104.382L305.25 104.045L304.757 103.563L304.477 103.68L304.334 103.372L303.895 102.455L304.033 102.35L304.123 101.81L303.44 100.504L303.419 100.082L303.131 99.5098L303.301 99.5219L303.436 99.8627L304.099 100.678L304.391 100.776L304.473 101.064L304.896 101.348L305.896 101.696L306.132 101.989L306.547 101.822L306.897 101.867L307.137 101.705L307.462 101.798L307.812 101.465L308.629 101.254L309.069 101.465L309.439 101.449L309.898 101.843L310.398 101.948L310.85 102.569L311.867 103.194L311.822 103.457L311.513 103.25L310.903 103.453L310.577 103.364L310.272 103.441L309.166 104.281L308.601 104.918L308.145 105.794L308.027 106.735L308.218 107.234L307.97 108.391L307.698 108.447L307.507 108.861L307.393 108.902L306.518 109.153L306.425 108.975L305.904 109.052L305.575 109.498L304.774 110.05L304.566 110.541L304.607 110.776L304.424 111.024L304.001 111.198L303.525 111.113L303.448 110.821L302.915 110.549L302.927 110.431L303.253 110.476L303.761 110.249L303.444 109.575L303.631 109.372L303.484 109.226L303.602 108.942L303.436 108.711L303.44 108.374L303.814 108.086L303.846 107.875L303.667 107.571L303.692 107.413L303.387 107.226L303.606 106.634Z" fill="black"/>
<path d="M244.601 126.777L244.695 126.602L244.837 126.497L244.979 126.513L244.987 126.432L244.869 126.379L244.715 126.314L244.524 126.379L244.41 126.472L244.231 126.371L244.15 126.525L243.987 126.472L243.93 126.379H243.743L243.796 126.196L243.865 126.144L243.922 126.103L244.048 126.054L244.036 125.986L244.019 125.884L243.897 125.896L243.808 125.746L243.95 125.629L243.922 125.482L243.812 125.454L243.954 125.324L244.019 125.308L244.109 125.198L244.145 125.012L244.052 125.065L243.889 125.044L243.958 124.878L243.751 124.919L243.617 124.772L243.523 124.797L243.381 124.914L243.031 125.158L242.82 125.215L242.685 125.365L242.238 125.499L242.006 125.714L241.941 125.839L241.815 125.953L241.608 125.977L241.595 125.88L241.738 125.791L241.742 125.722L241.534 125.73L241.189 126.018L240.981 126.144L240.88 126.148L241.754 125.413L241.961 125.292L242.23 125.146L242.462 125.178L242.588 125.044L242.714 124.988L242.901 124.971L242.999 124.914L243.039 124.841L243.511 124.63L243.861 124.371L244.166 124.209L244.251 124.006L244.589 123.604L244.845 123.417L245.475 123.19L245.972 122.821L246.057 122.724L246.207 122.326L246.391 122.164L246.297 121.872L246.293 121.47L246.374 121.048L246.472 120.78L246.647 120.849L246.822 120.732L246.96 120.237L246.988 119.985L247.708 119.308L248.16 119.239L248.135 119.056L248.241 118.987L248.18 118.76L248.326 118.517L248.631 118.87L249.03 119.442L249.323 120.042L249.477 120.285L249.53 120.46L249.734 120.606L250.12 120.476L250.681 120.338L250.832 120.298L250.783 120.111L251.271 120.03L251.369 119.924L251.523 119.945L251.674 120.079L251.958 119.957L252.235 119.997L252.43 120.038L252.727 120.172L252.93 120.143L253.211 119.941L253.292 119.803L253.349 119.624L253.414 119.592L253.577 119.482L253.711 119.592L254.098 119.644L254.346 119.782L254.228 120.058L254.338 120.257V120.679L254.248 120.926L254.11 121.044L253.943 121.048L253.679 121.044L253.488 121.178L253.28 121.04L253.195 121.056L252.967 121.369L252.882 121.478L252.8 121.543L251.958 121.572L251.633 121.519L251.035 121.527L250.954 121.596L250.864 121.892L250.791 121.937L250.58 122.014L250.441 121.876L250.36 121.884L250.254 122.164L250.096 122.484L249.933 122.647L249.791 122.849L249.766 123.073L249.677 123.186L249.429 123.227L249.355 123.49L249.254 123.787L249.176 123.973L249.294 124.091L249.311 124.302L249.164 124.411L248.932 124.768L248.928 124.878L248.44 125.016L248.355 124.963L248.086 124.996L247.558 124.91L247.391 124.955L247.261 125.077L247.403 125.207L247.464 125.588L247.525 125.669H247.607L247.7 125.961L247.883 126.018L247.993 126.164L248.009 126.395L247.977 126.485L247.651 126.671L247.159 126.842L247.033 127.053L246.96 127.515L246.785 127.527L246.716 127.588L246.659 127.779L246.37 128.144L246.293 128.172L245.907 127.799L245.862 127.689L245.78 127.718L245.724 127.836L245.841 128.087L245.829 128.193L246.02 128.399L246.106 128.42L246.142 128.541L246.061 128.915L246.183 129.04L246.268 129.422L246.264 129.961L246.098 130.002L246.077 130.156L245.947 130.107L245.565 130.249L245.508 130.14L245.406 130.002L245.37 129.929L245.183 129.994L245.105 130.03L245 130.055L244.991 130.172L245 130.225L244.922 130.331L244.78 130.318L244.67 130.322L244.568 130.306L244.601 130.156L244.471 130.002L244.512 129.953L244.658 129.937L244.8 129.832L244.544 129.694L244.658 129.6L244.756 129.657L244.817 129.673L244.873 129.633L244.788 129.475L244.829 129.369L244.707 129.312L244.658 129.296L244.654 128.959L244.54 128.943L244.398 129.077L244.227 128.98L244.072 129.049L244.019 129.081L243.983 129.166L243.962 129.284L243.816 129.211L243.95 129.049L243.958 128.894L244.019 128.752L244.109 128.732L244.19 128.777L244.247 128.915L244.381 128.89L244.613 128.801L244.666 128.692L244.544 128.643L244.629 128.485L244.784 128.241L244.776 128.107L244.617 128.071L244.556 128.075L244.467 128.107L244.406 128.16L244.316 128.103L244.337 128.002L244.19 127.933L244.251 127.799L244.369 127.657L244.158 127.43L244.365 127.511L244.646 127.649L244.764 127.783L244.906 127.791L244.873 127.641L244.792 127.474L244.918 127.365L245.146 127.381L245.24 127.369L245.276 127.304L245.219 127.166L245.105 127.182L244.951 127.044L245.109 126.959L245.126 126.833L244.8 126.854L244.601 126.777Z" fill="black"/>
<path d="M270.708 104.634L271.18 104.926L271.208 105.08L271.334 105.064L271.505 104.959L271.241 104.63L271.322 104.577L271.541 104.723L271.692 104.46L271.456 104.277L271.354 103.936L271.594 103.997L271.769 104.277L272.078 104.115L272.139 104.257L272.636 104.111L272.729 103.936L272.627 103.806L272.652 103.421L272.477 103.145L272.981 102.743L273.14 102.987L273.046 103.567L273.193 103.786L273.437 103.741L273.632 103.125L273.64 102.606L273.408 102.147L272.79 101.53L272.823 101.084L272.501 100.601L272.932 100.086L273.075 99.4817L273.929 98.228L273.831 97.9603H274.177L274.799 97.5181L275.482 98.1631L275.584 98.6703L275.751 98.8244L276.117 98.7717L276.381 99.08L276.572 99.1003L277.284 98.9299L278.041 99.5222L278.138 99.7738L278.907 99.579L278.992 99.7778L278.793 99.9279L278.691 100.492L278.895 100.642L278.874 100.857L279.196 100.971L279.143 101.169L279.403 101.384L279.525 101.879L279.269 102.066L279.2 102.382L278.655 102.374L278.195 102.573L278.024 102.362L277.837 102.545L277.626 102.476L277.427 102.654L277.093 102.569L276.865 102.881L276.743 102.675L276.312 102.683L275.836 102.512L275.47 102.707L275.466 103.1L275.064 103.766L274.327 103.384L274.055 103.437L273.929 103.709L274.266 104.423L274.214 104.727L273.766 104.598L273.624 105.032L273.099 105.084L272.916 105.437L272.729 105.478L272.416 105.166L271.993 106.289L271.761 106.403L271.619 106.241L271.35 106.237L271.33 106.439L271.18 106.48L270.996 106.78L270.439 106.886L269.825 106.646L269.122 106.569L269.069 106.216L268.536 105.725L268.654 105.32L268.442 105.149L268.609 104.784L268.967 104.853L268.882 105.295L268.955 105.397L270.004 105.555L270.728 105.401L270.838 105.044L270.574 105.153L270.561 104.95L270.329 104.906L270.541 104.666L270.708 104.634Z" fill="black"/>
<path d="M227.955 122.846L228.459 122.299L228.516 122.055L228.468 121.909L228.333 121.913L228.309 121.638L228.537 121.617L228.638 121.289L228.984 121.078L228.952 120.919L229.269 120.907L229.37 121.029L229.793 120.984L230.07 120.822L230.359 120.441L230.806 120.623L230.989 120.485L231.717 120.644L231.892 120.879L232.193 120.765L232.323 120.453L232.795 120.145L232.958 120.27L232.665 120.818L232.734 121.207L232.413 121.491L232.502 121.678L232.77 121.625L232.994 122.652L233.564 123.504L233.791 123.39L234.231 123.698L234.17 123.849L234.292 124.173L234.133 124.384L234.186 124.571L233.409 124.615L233.014 124.506L232.636 124.599L231.981 125.159L231.859 125.828L231.66 125.881L231.469 126.161L231.591 126.226L231.709 126.611L231.652 126.871L231.441 126.977L231.392 127.131L231.538 127.208L231.526 127.459L231.868 127.755L231.672 128.315L231.53 128.417L230.908 128.206L230.635 127.958L230.306 127.975L230.241 127.812L230.025 128.396L229.415 128.327L228.756 128.932L228.829 129.366L227.959 129.334L228.154 128.887L228.024 128.563L227.723 128.246L227.735 128.08L227.585 128.003L227.654 127.504L227.894 127.082L228.646 126.506L228.854 126.157L229.061 126.169L229.069 125.256L228.903 125.171L228.602 125.273L228.199 125.658L227.947 125.37L227.634 125.301L226.942 124.867L226.747 124.956L226.397 124.859L226.117 124.989L225.047 124.956L225.108 124.68L225.763 124.55L225.983 124.291L226.06 124.068L225.889 124.189L225.828 124.007L225.718 123.942L225.535 124.039L225.446 123.877L225.93 123.735L226.048 123.581L225.999 123.427L226.345 123.305L226.406 123.057L226.645 123.22L226.544 123.37L226.617 123.54L226.951 123.597L226.995 123.881L227.19 123.849L227.256 123.711L227.524 123.739L227.947 123.54L227.996 123.199L228.228 123.106L228.195 122.863L227.955 122.846Z" fill="black"/>
<path d="M312.66 90.6606L312.408 90.9892L311.395 91.472L311.236 91.7397L311.253 91.9345L309.858 91.5125L309.626 91.0947L309.488 91.2813L309.675 91.8087L309.219 92.0075L308.625 92.5755L308.451 92.3442L307.987 92.1738L307.853 91.7032L307.519 91.6018L307.21 91.188L306.986 91.1758L306.852 91.0419L306.917 90.2873L306.572 90.3076L306.478 89.9262L306.063 89.5287L305.091 89.123L304.111 89.0094L303.558 89.2487L303.485 89.6179L302.35 89.9709L302.244 90.1413L301.923 90.2184L301.829 90.3969L301.573 90.4334L301.199 90.7336L300.646 90.831L300.357 91.2448L299.975 91.4192L299.039 91.1271L298.828 91.2083L298.824 91.0582L298.921 90.8878L298.877 90.3441L298.966 90.0277L298.795 89.4638L298.938 88.9445L298.746 88.5672L298.47 88.5022L298.23 88.1777L298.624 87.6097L298.706 87.1391L298.763 86.6563L298.49 86.4291L298.722 86.0559L299.597 85.9585L299.82 85.8409L300.097 85.9382L300.227 85.4554L300.394 85.3905L300.585 85.3743L300.743 85.5041L300.894 85.4068L301.406 85.496L301.602 85.4027L301.447 85.07L301.484 84.7414L301.313 84.3235L301.325 84.0274L301.947 83.6054L301.894 83.5081L302.183 82.9807L302.826 82.2869L303.147 82.2139L303.403 82.4898L303.786 82.2545L304.034 82.4127L304.29 82.3843L304.424 82.2423L304.819 82.9239L305.319 82.7373L305.917 83.1916L306.218 82.9644L306.746 83.0699L307.287 82.4168L307.064 82.2504L307.047 81.435L307.169 80.7412L307.735 81.009L308.194 80.7777L308.658 81.0577L308.808 81.4999L309.886 81.3903L310.22 81.5039L310.447 81.6905L310.374 82.153L310.488 82.4573L310.744 82.6602L311.236 82.7697L311.297 82.7048L311.106 82.5466L311.749 82.5709L311.802 82.4817L311.79 81.6013L312.082 81.4918L312.363 81.5648L312.518 82.0841L312.806 82.2585L312.827 82.7778L313.006 83.0821L313.229 85.5285V86.8713L312.66 90.6606Z" fill="black"/>
<path d="M276.186 108.111L275.893 107.831L276.023 107.745L276.031 107.368L276.162 107.157L276.178 106.613L276.401 106.435L276.186 106.09L276.223 105.684L275.966 105.425L276.064 105.064L275.84 104.776L275.714 104.979L275.397 104.861L275.446 104.212L275.177 104.183L275.072 103.749L275.47 103.084L275.474 102.69L275.84 102.496L276.316 102.666L276.747 102.662L276.869 102.869L277.097 102.557L277.43 102.646L277.626 102.467L277.837 102.536L278.024 102.358L278.191 102.569L278.651 102.37L279.2 102.378L279.269 102.062L279.521 101.875L279.399 101.38L279.139 101.169L279.187 100.97L278.866 100.857L278.886 100.642L278.687 100.491L278.785 99.9276L278.988 99.7775L278.903 99.5787L279.106 99.1365L279.013 98.8362L279.261 98.7429L279.643 98.0654L279.627 97.9072L279.318 97.7327L279.216 97.4974L279.452 97.465L279.57 97.0349L279.883 96.8077L279.985 97.0471L280.127 96.901L280.501 97.108L280.639 97.4203L280.534 97.7165L280.672 97.749L281.237 97.254L281.339 96.7875L282.185 95.9679L282.409 95.9598L282.51 96.1383L283.104 95.8584L283.344 95.8787L283.36 96.2357L283.446 96.2519L283.995 95.9274L284.109 96.2438L284.568 96.3858L284.857 96.2479L285.199 96.5805L285.581 96.6089L285.634 96.8158L286.053 97.0836L286.089 97.2986L286.053 97.6151L285.487 98.3494L285.642 98.5725L285.621 98.7835L285.316 99.0715L285.312 99.4002L285.499 99.603L285.792 99.7044L285.634 100.341L285.227 100.65L285.077 101.023L284.898 101.064L284.686 101.494L284.515 101.522L284.381 101.388L283.913 101.53L283.771 101.96L283.531 102.062L283.486 102.281L283.604 102.439L284.027 102.443L284.048 102.65L284.548 102.8L284.873 103.526L285.19 103.81L285.016 104.329L285.174 104.512L285.146 104.958L285.272 105.181L285.707 105.052L285.939 105.271V105.64L285.674 105.924L285.963 106.321L285.609 106.439L285.715 106.954L285.373 107.218L285.377 107.433L285.052 107.465L284.353 108.033L283.95 107.835L283.958 107.705L283.616 107.689L283.645 107.591L283.34 107.396L283.084 107.405L282.709 107.701L282.364 107.77L282.152 107.482L281.77 107.323L281.648 107.409L281.518 107.348L281.408 107.218L281.445 107.019L281.245 106.938L281.258 106.674L280.778 106.321L280.786 106.094L280.18 106.549L279.505 106.751L278.988 106.691L278.301 107.9L278.211 108.788L277.772 108.739L277.085 107.725L276.186 108.111Z" fill="black"/>
<path d="M302.191 98.2801L302.065 98.5154L301.865 98.5884L301.654 98.3937L300.621 98.5884L299.885 98.0448L299.535 98.13L299.14 98.0123L298.896 98.0732L298.209 97.7243L297.924 97.704L297.424 98.5032L297.416 98.8805L297.245 99.1888L296.623 99.2172L296.436 99.5337L295.818 99.696L295.444 100.106L294.943 100.114L294.638 100.524L294.492 100.56L294.345 100.349L294.097 100.272L293.943 99.554L294.077 99.412L293.963 99.1402L293.699 99.1077L293.52 98.7994L293.585 98.7304L293.772 98.8643L293.955 98.6695L293.967 98.3409L293.796 98.1624L293.703 97.7121L294.122 97.4362L294.15 96.8358L294.032 96.3692L293.695 96.2678L293.41 96.3084L293.231 96.4706L292.873 96.3692L292.788 96.495L292.613 96.4666L292.104 96.1664L292.08 95.639L292.324 94.9655L292.316 94.5639L292.706 94.0851L293.097 94.0202L293.101 93.578L293.829 93.432L294.459 93.0952L294.561 93.1642L294.707 92.9086L295.195 93.0871L295.517 92.8153L295.476 92.4096L295.736 92.4218L296.342 92.1702L296.241 91.9917L296.359 91.6063L296.704 91.6509L296.741 91.5455L296.631 90.7625L297.298 90.6489L297.632 90.3527L297.68 89.9673L298.307 90.5961L298.351 90.9045L298.726 90.9328L298.819 91.0708L298.823 91.2209L299.035 91.1398L299.97 91.4278L299.734 92.0526L300.149 92.2311L299.734 92.8031L299.848 93.2778L299.608 93.6389L299.535 94.1947L300.133 94.4949L300.633 94.4665L300.771 94.7424L300.438 95.0061L300.275 95.4929L300.409 95.8012L299.925 96.4301L299.852 96.8196L300.279 97.136L300.263 97.3713L300.714 97.7648L301.125 97.6472L301.414 97.8216L301.865 97.7486L302.02 97.846L301.983 97.9596L302.191 98.2801Z" fill="black"/>
<path d="M260.524 112.488L260.08 112.853L259.588 112.764L259.369 112.208L258.929 111.819L258.856 111.628L259.141 111.097L258.864 110.752L259.007 110.622L259.068 110.253L258.986 110.014L259.361 109.794L259.385 109.417L259.625 109.316L259.722 108.869L259.82 108.764L260.093 108.792L260.125 108.476L259.869 108.208L260.048 107.884L260.284 107.989L260.951 107.523L260.845 107.052L260.906 106.877L260.609 106.488L260.646 106.05L260.349 105.912L260.15 105.149L260.198 104.735L260.044 104.423L259.763 104.212L260.629 103.944L261.126 103.644L261.614 103.77L261.784 103.96L262.118 103.689L262.679 103.77L263.2 103.652L263.383 103.786L263.781 103.762L263.79 104.581L264.139 104.906L264.225 105.153L264.518 105.226L265.058 104.959L265.189 105.178V106.245L264.819 106.456L264.355 106.232L264.204 106.638L264.213 107.153L264.819 107.401L265.355 107.859L265.664 107.673L266.079 107.681L266.087 107.997L266.437 108.33L266.336 108.553L266.559 108.65L266.734 108.504L267.064 108.521L267.153 108.545L267.169 108.841L267.515 108.768L267.909 108.967L268.027 109.478L267.873 109.563L267.804 109.782L267.629 109.762L267.511 109.888L267.674 109.985L267.706 110.379L267.609 110.525L268.178 110.853L268.568 110.91L268.198 111.117L268.373 111.218L268.182 112.046L268.483 112.549L268.544 113.129L268.324 113.62L268.145 113.486L268.202 113.296L268.101 113.085L267.726 113.214L267.556 112.971L267.161 112.918L266.356 113.3L266.315 113.576L265.266 113.835L263.529 113.137L262.85 112.468L260.524 112.488ZM264.347 116.983L264.436 117.296L263.598 117.637L263.2 117.969L262.655 118.046L262.651 117.864L262.411 117.738L262.435 117.535L262.26 117.47L262.041 117.061L262.313 116.671L262.468 116.768L262.659 116.671L263.2 115.527L263.363 115.34L263.529 115.344L263.916 114.736L264.302 114.561L264.615 114.107L264.839 113.989L265.018 114.326L264.774 114.618L264.713 114.931L263.989 115.876L263.985 116.501L264.347 116.983Z" fill="black"/>
<path d="M308.023 28.9223L309.126 28.0582L309.142 27.8188L308.345 26.5328L307.784 26.1311L307.499 25.6605L307.775 24.63L307.666 24.4353L308.333 24.4799L308.577 24.3095L308.662 24.0904L308.878 24.0052L309.996 25.0844L310.781 25.4374L311.241 25.9567L312.249 25.766L312.318 25.5956L312.733 25.4658L313.026 25.4739L312.969 25.9485L314.205 26.5125L315.1 26.0175L315.901 25.1453L316.304 24.4961L316.345 23.5427L315.783 22.423L316.003 21.636L315.735 21.0518L315.552 20.1308L315.966 19.2788L316.564 18.9178L316.873 18.8975L317.699 18.362L318.077 17.5952L318.244 16.8041L318.102 13.6153L318.305 13.4855L318.972 12.0898L319.057 10.9295L319.212 10.609L319.265 9.95993L319.143 8.63329L318.83 7.0754L317.593 4.10568L317.467 3.63507L317.496 3.23343L317.845 2.71819L318.167 1.92707L318 1.35909L318.061 0.839798L318.366 1.15219L318.419 1.36315L318.577 1.42806L319.293 1.31447L319.842 0.933109L320.066 0.125767L320.42 0L320.611 0.133881L320.839 0.657233L321.079 0.795171L321.335 1.39155L322.279 2.08124L323.177 3.34702L325.191 5.60271L326.781 8.53592L327.83 9.57045L328.822 10.8281L331.092 12.6132L331.73 12.9743L331.865 13.3597L332.377 13.7492L333.882 14.5362L335.2 15.0555L337.591 15.7411L338.726 15.9562L338.905 15.8304L339.023 16.1428L338.998 16.6621L339.352 17.2909L339.588 17.4857L340.893 17.8954L342.28 17.9806L343.326 17.8508L344.253 17.0434L344.879 16.2645L345.766 15.4369L346.51 14.9257L346.778 14.3374L347.226 13.8668L347.543 13.3069L347.73 13.3191L347.913 14.2238L347.421 15.234L347.051 15.6073L346.807 16.5809L346.103 17.4451L345.721 18.3052L345.762 18.6419L345.449 19.4736L345.538 19.9036L346.087 20.9503L346.693 21.7496L347.311 23.8714L347.917 24.6665L347.445 24.4515L347.368 24.2365L346.905 24.1472L346.807 24.2973L346.892 24.8085L347.242 24.5367L347.433 24.699L347.315 24.9221L347.466 25.0803L347.629 24.9668L348.666 25.2183L349.516 24.5286L349.646 24.2852L350.097 23.9971L350.195 23.7943L351.529 23.8754L351.452 24.0783L350.976 24.4475L350.272 24.5732L349.512 24.9911L349.186 26.1798L348.873 26.0337L348.369 26.0135L347.267 26.2204L346.652 26.5855L346.14 26.5003L345.888 26.7437L345.831 27.2103L345.18 28.0825L344.765 28.2813L343.993 28.2407L343.627 27.9202L343.639 27.7052L343.773 27.5795L343.549 27.4293L343.252 27.4699L342.768 28.1718L342.76 28.3381L343.228 28.7966L342.41 28.7479L341.943 28.6059L340.487 28.5978L340.206 28.5369L339.564 28.0217L338.319 28.2407L337.331 28.7195L335.948 29.7459L333.805 31.8839L332.145 34.237L331.523 35.5799L331.409 36.2574L331.633 36.8416L331.299 38.4157L330.929 39.0364V39.6896L329.424 38.1804L327.452 37.3609L324.162 35.5555L323.194 34.878L322.445 34.0463L321.14 33.665L320.241 32.8333L319.501 32.3464L318.756 32.1314L317.788 32.1152L316.499 32.5371L315.653 33.0605L314.563 33.9855L313.917 34.3465L313.054 35.3405L312.916 35.6448L312.481 35.4825L312.347 35.2594L312.501 35.1417L312.741 35.4013L312.79 35.0727L312.241 34.9064L311.887 33.9449L311.566 33.7826L311.131 33.3282L311.082 33.0929L310.565 32.5939L310.061 32.5574L309.553 32.7724L309.158 32.5331L308.666 32.5452L307.983 33.2795L307.397 34.3952L307.108 35.4297L307.222 36.2168L308.166 36.7036L309.28 37.657L309.585 37.7138L310.142 37.4988L310.972 37.6246L311.472 38.5212L312.135 39.0161L312.575 39.7788L313.856 40.3306L314.079 40.6917L314.401 40.931L314.153 41.1785L313.766 41.1826L313.319 41.71L312.644 41.9777L312.294 41.6572L311.163 41.288L310.785 41.353L310.671 41.6045L310.504 41.6451L310.431 41.3976L310.708 41.215L310.626 40.9432L310.386 40.7931L310.037 40.8256L309.87 40.9594L309.695 41.641L309.109 42.071L308.585 42.1116L308.442 42.2455L308.316 43.844L308.154 44.0387L307.771 44.0509L306.974 44.4038L306.608 45.1706L306.45 45.3004L306.035 44.9759L305.571 45.0651L305.205 44.7771L304.766 43.6736L304.729 43.3247L304.896 42.6066L305.445 41.3773V40.9513L305.758 40.9838L305.876 40.7444L306.002 39.649L305.839 38.8457L305.067 37.653L304.794 37.5069L304.265 37.4582L304.058 36.9187L303.712 36.5616L303.249 36.3953L303.09 36.0992L303.013 35.5352L303.139 35.0808L303.521 34.663L303.655 34.2776L303.668 33.2025L303.468 32.2977L303.843 31.7095L304.298 31.4579L305.225 31.4336L305.473 31.0644L306.039 30.7683L306.384 29.9893L306.718 30.2206L306.946 30.6141L307.308 30.5208L307.344 29.9569L307.678 29.6161L308.023 28.9223ZM314.01 4.0002L313.974 3.50119L314.494 2.99406L315.336 3.48496L315.543 4.21928L314.807 4.82377L314.25 4.38967L314.01 4.0002ZM301.044 36.9308L300.926 37.8315L300.768 38.0871L300.503 38.1804L300.495 38.3264L300.247 38.1074L300.272 37.4136L300.101 36.9633L300.402 36.5211L301.179 36.3669L301.366 36.1559L301.378 36.4156L301.044 36.9308ZM313.388 1.72422L313.282 2.77499L313.124 2.82773L312.766 1.6228L312.855 1.09133L312.607 0.953394L312.644 0.657233L312.908 1.00208L313.176 0.941223L313.168 0.70186L313.307 0.811399L313.449 1.12784L313.388 1.72422Z" fill="black"/>
<path d="M245.866 117.921L245.548 117.637L244.959 118.347L245.085 118.712L245.394 118.63L245.524 118.756L245.463 118.841L245.178 119.056L245.064 118.943L244.438 119.048L244.365 118.809L244.829 118.553L244.727 118.367L244.784 118.111L244.999 117.933L245.032 117.539L244.743 116.837L244.804 116.444L244.271 116.18L243.344 116.602L243.336 116.752L242.632 117.405L242.547 117.612L242.657 117.673L242.523 117.75L242.002 117.624L241.799 117.032L241.831 116.776L241.457 116.46L241.359 115.908L241.428 115.58L241.306 115.304L241.107 115.048L241.229 114.789L241.473 114.715L241.729 114.44L241.815 113.717L242.1 113.3L241.876 113.162L241.998 112.967L242.588 112.618L242.714 112.156L243.035 112.2L243.198 112.395L243.283 112.216L243.787 112.164L243.999 112.334L244.206 112.16L244.178 112.058L244.345 112.001L244.446 112.168L245.109 112.22L245.707 111.79L246.423 111.734L246.419 111.381L246.138 111.295L245.984 111.105L246.329 110.699L246.813 110.598L247.789 109.247L247.952 109.218L248.42 109.502L248.741 109.251L249.14 109.571L249.717 109.401L249.953 109.49V109.596L250.807 109.466L250.978 109.669L251.389 110.164L251.202 110.654L251.198 111.304L251.848 112.115L251.73 112.569L251.897 113.34L251.893 113.9L252.385 114.569L252.434 115.275L252.251 115.778L251.893 115.815L251.877 116.18L251.743 116.306L250.766 116.099L250.75 116.014L250.982 115.937L250.966 115.693L250.738 115.608L250.766 115.782L250.498 115.904L249.827 116.176L249.526 116.139L249.432 116.537L248.92 116.695L248.399 116.61L247.932 116.716L247.789 116.947L247.566 117.052L247.464 116.825L247.175 116.858L247.069 117.206L246.886 117.146L246.87 117.543L246.398 117.576L245.866 117.921Z" fill="black"/>
<path d="M309.45 97.3802L309.41 98.2403L309.772 99.5669L310.862 101.798L311.525 102.808L311.858 102.999L311.874 103.182L310.858 102.557L310.406 101.936L309.906 101.831L309.446 101.437L309.076 101.453L308.637 101.242L307.82 101.453L307.47 101.786L307.144 101.693L306.904 101.855L306.555 101.81L306.14 101.977L305.904 101.685L304.903 101.336L304.48 101.052L304.399 100.764L304.106 100.666L303.443 99.8509L303.309 99.5101L303.138 99.4979L302.98 99.6399L302.821 99.5994L302.467 98.8042L302.536 98.4431L302.833 98.4188L303.504 98.0658L303.728 97.3802L304.188 97.4938L304.236 97.1368L304.643 96.9461L304.696 96.7635L305.33 96.7311L305.436 96.6783L305.457 96.4674L305.729 96.5647L305.896 96.3781L306.075 96.37L306.189 96.5282L306.461 96.443L306.547 95.9683L306.921 95.2178L306.913 94.4835L306.681 93.6924L306.795 93.5382L307.181 93.453L307.222 93.3272L306.965 92.9215L307.055 92.3941L306.941 91.9925L306.978 91.1851L307.201 91.1973L307.51 91.6111L307.844 91.7126L307.978 92.1832L308.442 92.3536L308.617 92.5848L309.21 92.0168L309.666 91.818L309.479 91.2906L309.617 91.104L309.849 91.5219L311.244 91.9438L311.26 91.9519L311.272 91.956L311.346 92.2156L311.089 92.2846L310.89 92.67L310.41 94.2928L310.126 94.7675L309.808 95.6884L309.873 96.8568L309.45 97.3802Z" fill="black"/>
<path d="M278.626 89.607L278.601 89.0836L278.471 89.0268L278.325 89.1648L278.203 89.0512L278.451 88.1059L278.613 87.9639V87.2864L278.756 87.1322L279.341 86.6576L279.801 86.4507L280.261 86.5642L281.44 85.9638L281.611 85.7285L282.009 85.5338L282.526 85.4648L283.063 85.1768L283.482 85.2295L283.673 85.4973L283.575 85.6879L283.742 86.0166L283.494 86.1342L283.083 86.118L282.868 86.264L282.754 86.7387L282.998 87.1647L282.729 87.5623L282.001 87.542L281.639 87.7448L281.407 88.3493L280.936 88.6982L280.708 88.4832L280.509 88.4507L280.578 88.2033H280.435L279.842 89.0836L280.061 89.1769L279.992 89.4285L279.785 89.4772L279.834 89.6516L279.728 89.8098L279.956 89.8464L280.183 89.6151L280.643 90.0654L280.948 89.8017L281.029 89.5259H281.257L281.273 90.9417L280.769 90.9012L280.476 91.0067L279.907 91.5625L279.663 92.9784L279.439 93.2421L279.374 93.6396L279.467 93.8263L279.158 94.3253L279.236 94.7837L279.423 95.019L279.118 96.2199L279.301 96.9826L279.171 97.153L279.228 97.51L279.329 97.7453L279.638 97.9198L279.655 98.078L279.272 98.7596L279.028 98.8529L279.118 99.149L278.914 99.5913L278.146 99.786L278.048 99.5345L277.292 98.9421L276.58 99.1125L276.389 99.0922L276.124 98.7839L275.758 98.8367L275.592 98.6825L275.49 98.1754L274.807 97.5303L275.254 96.9623L275.628 96.8325L276.202 96.2808L278.02 93.8344L278.463 93.0352L279.004 91.4935L279.02 90.5604L278.634 89.96L278.626 89.607Z" fill="black"/>
<path d="M320.162 67.3144L320.333 67.3794L320.353 67.5619L320.016 67.5457L320.231 67.7607L320.434 67.7567L320.569 68.0325L320.15 68.207L319.853 68.1948L319.857 68.3409L320.056 68.4504L320.28 68.4017L320.284 68.4991L320.016 68.7141L319.715 68.7019L319.609 68.8115L320.288 69.2334L319.938 69.3551L319.426 69.1401L319.511 69.5336L319.926 69.6391L319.43 69.7121L319.731 69.9434L319.621 70.057L319.178 70.0245L318.987 70.1259L318.816 69.9353L318.832 69.704L318.69 69.635L318.714 69.8825L318.592 70.061L318.873 70.4099L318.698 70.4343L318.743 70.8035L318.551 70.9414L318.259 70.5519L318.36 70.3369L318.279 70.2598L317.905 70.2963L317.97 70.6006L317.494 70.4018L316.908 70.3491L316.811 70.56L316.855 71.2822L316.579 71.5662L316.62 71.7731L316.416 72.5601L315.42 72.1544L315.054 72.5074L314.985 72.7914L314.773 72.8644L314.053 72.4547L313.862 72.0124L314.102 71.7893L314 71.5865L313.708 71.5053L312.809 71.6067L312.585 71.2781L311.999 71.0834L311.503 70.7142L311.117 70.771L311.084 70.3044L311.406 69.7486L311.349 69.5864L310.954 69.4322L311.068 69.0387L310.958 68.9494L311.149 68.6127L311.393 68.491L311.048 68.3125L311.182 67.8824L310.726 67.57L310.511 67.2658L310.572 66.8925L310.328 66.3854L310.169 66.3489L310.19 66.0852L310.373 66.0365L310.352 65.7079L310.669 65.363L310.844 64.8194L310.759 64.5273L310.93 64.4827L311.178 64.1338L311.288 64.1459L311.495 63.6631L311.442 63.225L311.174 62.7503L311.332 62.6935L311.666 62.0971L311.21 61.8294L311.182 61.3993L311.515 61.2168L311.715 61.4115L311.942 61.3385L311.69 60.3242L311.711 59.237L311.922 59.0503L311.983 58.4175L311.82 58.2187L312.15 57.7683L312.398 57.6791L312.561 57.4478L312.748 57.7237L313.13 57.7278L313.537 57.4113L313.724 57.4032L313.74 57.1111L314.041 56.9082L314.659 56.7541L315.456 56.1496L315.733 56.5877L316.432 56.1415L316.709 56.105L317.213 56.4173L317.575 56.1374L317.62 55.8007L318.185 55.5492L318.377 55.3301L318.934 56.1577L319.56 57.5614L319.161 57.9996L319.727 58.243L319.914 58.5027L319.865 58.6041L319.666 58.6081L319.519 58.8272L319.564 59.2248L319.698 59.4195L319.906 59.4885L320.105 59.8496L320.386 59.8983L320.548 60.1822L320.418 60.8314L320.711 61.3223L320.805 62.5312L320.634 63.2169L320.813 63.2453L320.467 64.2879H320.569L321.11 63.5577L321.118 64.3772L321.362 64.4096L321.48 64.6936L321.419 64.8397L321.167 64.8721L320.817 65.3468L320.532 65.4482L320.707 65.8052L321.179 65.3468L321.305 65.3265L321.386 65.4766L321.211 66.0162L320.756 66.1217L320.394 66.3651L320.064 66.8479L320.203 66.9899L320.524 66.8195L320.703 67.0386L320.011 67.1562L320.162 67.3144Z" fill="black"/>
<path d="M249.66 128.76L249.563 129.178L249.152 129.036L248.908 129.215L248.729 129.86L248.867 130.533L248.404 130.728L248.395 131.174L248.814 131.43L248.949 132.03L248.822 132.05L248.139 131.442L247.826 131.397H247.684L247.192 131.819L246.952 131.673L246.838 131.754L246.468 131.324L245.821 131.681L245.784 131.34L246.061 130.931L246.041 130.785L246.512 130.273L246.415 130.119L246.077 130.148L246.098 129.993L246.264 129.953L246.268 129.413L246.061 128.906L246.142 128.533L245.833 128.184L245.723 127.827L245.862 127.677L246.289 128.156L246.366 128.127L246.712 127.567L246.956 127.498L247.155 126.825L247.647 126.655L248.009 126.383L247.993 126.152L247.704 125.945L247.265 125.06L247.562 124.894L248.444 124.999L248.932 124.861L249.315 124.285L249.184 123.961L249.437 123.214L249.774 123.06L249.799 122.837L250.104 122.472L250.368 121.871L250.588 122.005L250.799 121.928L251.039 121.518L252.804 121.535L253.199 121.048L253.487 121.17L253.679 121.036H254.11L254.26 121.255L254.805 121.466L255.541 121.397L255.806 121.762L256.127 121.892L256.375 121.811L256.546 121.482L256.704 121.429L256.806 121.616L257.091 121.547L257.298 122.058L257.339 122.869L258.14 122.89L258.234 123.214L258.043 123.433L258.083 123.624L258.4 124.107L259.259 124.196L258.494 125.648L258.23 127.097L257.929 126.606H257.681L257.632 126.31L257.233 125.904L257.058 125.486L256.485 125.21L256.277 124.772L254.964 124.529L254.781 124.306L253.5 124.508L253.398 124.699L252.45 125.174L252.458 125.433L251.568 125.6L251.344 126.034L251.242 125.799L250.868 125.92L250.901 126.172L250.791 126.285L250.876 126.464L250.738 126.788L250.876 126.752L250.905 126.967L250.771 127.044L250.848 127.271L250.482 127.653L250.584 127.949L250.486 128.01L250.457 127.847L250.278 127.86L249.66 128.76Z" fill="black"/>
<path d="M255.016 117.06L255.887 116.565L255.96 116.176L256.806 116.46L257.461 116.488L257.896 116.001L258.112 116.156L258.034 116.545L258.107 116.695L258.254 116.72L258.307 116.557L258.49 116.521L258.941 116.614L258.937 116.78L258.779 116.906L258.856 117.101L259.315 117.206L259.649 117.462L259.807 117.438L260.365 117.864L260.3 118.253L260.129 118.342L259.685 118.107L259.572 118.229L258.909 118.123L258.217 118.196L257.916 118.432L257.941 118.602L257.811 118.74L257.306 118.797L256.83 119.166H256.639L256.289 118.772L255.728 118.874L255.419 118.991L255.305 119.194L255.069 119.117L254.663 119.458L254.606 119.665L254.354 119.754L253.589 119.454L253.87 119.251L254.004 118.002L253.39 117.511L253.418 117.377L253.544 117.34L254.191 117.665L254.415 117.596L255.016 117.06Z" fill="black"/>
<path d="M230.594 137.914L230.086 137.65L229.98 137.451L229.748 137.399L229.586 137.111L229.366 137.419L228.996 137.585L228.654 137.581L228.41 137.804L227.987 137.739L227.857 137.488L227.637 137.382L227.711 136.944L228.134 136.486L228.642 135.419L229.317 134.741L229.268 134.352L229.114 134.34L229.085 134.157L229.358 134.169L229.411 134.08L229.045 133.857L230.037 132.875L229.943 132.794L229.492 132.981L228.426 133.021L228.43 132.867L229.537 132.125L229.529 131.508L229.622 131.366L229.276 130.895L228.963 130.822L228.91 130.518L228.317 130.242L228.186 129.532L227.955 129.337L228.825 129.37L228.752 128.936L229.411 128.331L230.021 128.4L230.236 127.816L230.301 127.978L230.631 127.962L230.903 128.21L231.526 128.421L231.521 128.538L231.875 128.607L232.119 128.928L232.376 128.948L232.538 129.204L232.693 129.208L232.892 128.952L232.965 128.607L232.628 128.116L232.681 127.816L233.095 127.589L233.669 127.694L234.092 128.137L234.169 128.611L234.519 128.928L234.759 129.585L234.844 130.506L235.414 131.021L234.901 131.086L234.673 131.492L234.661 131.857L234.267 132.116L234.185 132.494H233.945L233.799 132.713L233.697 133.285L233.51 133.423L233.221 133.338L233.104 133.63L232.941 133.699L232.839 134.259L232.941 134.717L233.112 134.993L233.291 135.029L233.368 135.496L233.677 135.772L233.421 136.19L233.193 136.202L233.112 136.441L233.579 136.985L233.649 137.354L233.291 137.399L232.839 137.253L232.554 137.735L232.392 137.788L232.046 137.646L231.639 137.934L230.594 137.914ZM228.146 133.946L228.337 133.918L228.243 134.437L228.024 134.745L228.138 134.782L227.91 135.127L227.572 135.281L227.088 135.07L226.722 135.102L226.698 134.948L226.49 134.879L226.332 135.042L226.535 135.204L226.556 135.382L226.381 135.784L225.624 136.332L225.531 136.681L225.1 136.969L225.12 137.358L224.929 137.427L224.66 136.981L224.762 136.628L224.465 136.543L224.729 135.967L224.55 135.731L224.542 135.439L225.026 134.461L225.1 134.003L225.665 133.739L226.238 133.678L226.336 133.792L226.275 134.165L226.381 134.583L227.04 134.255L227.284 133.962L227.637 133.853L227.869 134.003L228.146 133.946ZM226.043 136.835L226.011 136.547L226.246 136.307L226.157 136.697L226.425 137.387L226.238 137.5L226.047 138.003L225.632 137.671L225.665 137.366L225.527 137.22L225.584 136.867L226.043 136.835ZM228.349 133.609L228.134 133.719L227.987 133.654L227.898 133.301L228.288 132.94L228.422 133.297L228.292 133.467L228.349 133.609Z" fill="black"/>
<path d="M296.237 106.317L296.404 105.859L297.132 105.522L297.319 105.258L297.608 105.218L297.807 105.007L297.945 104.723L297.953 103.664L298.197 103.717L298.384 103.94L298.633 103.928L298.873 104.329L299.222 104.265L300.105 104.553L300.654 105.319L300.776 105.307L300.853 104.488L300.532 104.236L300.621 104.143L300.821 104.333L301.13 103.964L302.22 104.48L302.354 104.751L302.549 104.845L302.553 104.999L302.813 104.922H302.818H302.83H302.838L303.009 105.218L302.403 105.534L302.102 105.51L301.935 105.676L302.09 105.859L302.252 105.81L302.415 105.928L302.248 106.285L302.106 106.183L301.915 106.216L301.874 106.374L302.073 106.48L302.183 107.015L302.045 107.299L302.435 107.616L302.87 107.709L302.696 108.139L302.407 108.175L302.142 108.399L302.191 108.638L302.33 108.674L302.313 108.849L301.768 108.837L301.829 108.358L301.695 107.879L301.439 107.603L301.463 107.348L300.43 107.096L299.434 107.234L298.572 107.502L298.1 107.879L298.031 108.727L297.77 108.869L297.152 108.784L297.099 108.508L296.815 108.289L296.717 107.676L296.949 107.421L297.059 107.031L296.92 106.411L296.859 106.313L296.237 106.317Z" fill="black"/>
<path d="M226.852 144.242L227.312 143.475L227.421 142.526L227.34 142.092L226.083 140.798L226.543 139.702L226.47 139.26L226.173 138.692L226.405 138.254L226.112 138.018L226.197 137.799L226.539 137.625L226.75 137.629L227.027 137.816L227.466 137.775L227.645 137.386L227.865 137.491L227.995 137.743L228.418 137.808L228.662 137.584L229.003 137.588L229.374 137.422L229.593 137.114L229.756 137.402L229.988 137.455L230.093 137.653L230.602 137.917L230.407 138.323L230.671 138.416L231.004 138.737L231.175 139.313L231.614 139.455L231.915 139.799L231.867 140.311L231.785 140.339L231.854 140.696L232.119 140.737L232.241 140.883L232.68 140.935L232.607 141.183L232.928 141.26L232.993 141.897L233.217 142.29L233.42 142.055L233.709 142.315L234.099 142.27L234.291 142.388L234.413 142.761L234.311 143.013L234.388 143.353L234.136 143.621L234.087 143.913L233.611 143.743L233.209 144.059L232.924 144.502L232.892 144.826L233.611 145.074L233.62 145.248L233.355 145.536L233.428 145.609L233.75 145.496L233.798 145.597L233.282 146.055L232.871 146.068L232.786 146.408L232.464 146.883L231.749 147.281L231.163 147.382L230.049 148.214L230.195 147.662L229.988 147.5L230.72 146.936L230.899 146.481L230.797 146.189L231.082 145.828L231.191 145.045L230.809 144.209L230.622 143.966L230.35 143.852L230.394 143.065L229.845 143.078L229.491 142.745L229.768 142.376L230.195 142.295L230.496 142.546L230.451 142.883L230.882 142.919L231.342 142.084L231.143 141.637L230.057 141.321L229.715 141.593L229.626 142.075L229.247 142.619L229.308 142.838L229.024 143.435L228.926 143.422L228.861 143.82L228.967 144.355L229.292 145.191L229.727 145.589L230.089 145.682L229.878 146.396L229.459 146.696L229.207 146.498L228.898 146.615L228.8 146.498L228.824 146.165L228.434 145.82L227.572 145.828L227.222 145.678L226.466 145.844L226.392 145.244L226.132 145.151L226.425 144.928L225.799 144.327L226.018 144.059L226.124 144.254L226.543 144.461L226.852 144.242ZM228.739 153.151L229.317 153.407L229.292 153.541L229.849 153.691L230.122 153.946L229.967 154.66L229.435 155.196L228.93 155.318L228.243 155.204L228.137 154.883L228.048 154.956L228.052 154.676L227.869 154.441L227.759 153.979L227.775 153.788L228.157 153.756L228.458 153.386L228.462 153.196L228.686 153.232L228.731 153.082L228.739 153.151ZM232.342 152.068L232.269 151.232L232.603 150.705L232.725 150.709L232.786 150.165L233.217 149.65L233.424 150.112L233.327 150.34L233.392 150.981L233.184 151.273L233.217 151.739L233.022 151.995L233.038 152.186L232.757 152.356L232.456 152.973L232.513 153.086L232.424 153.188L232.599 153.399L232.505 153.589L232.615 153.731L232.481 153.78L232.477 153.967L232.147 153.962L231.741 154.238L231.619 154.003L231.688 153.646L231.549 153.098L231.745 153.102L232.342 152.068ZM222.529 142.189L222.215 142.38L222.049 142.262L221.996 142.035L222.146 141.95L222.305 141.495L222.842 141.297L223.017 140.793L223.163 140.862L223.143 141.061L222.887 141.528L222.643 141.601L222.687 141.767L222.533 141.933L222.638 142.063L222.529 142.189ZM223.407 140.363L223.277 140.136L223.419 139.946L223.639 139.978L223.793 140.177L224.139 140.1L224.188 140.254L224.176 140.497L223.806 140.619L223.598 140.509L223.631 140.376L223.468 140.242L223.407 140.363ZM226.588 153.086L226.868 153.285L226.864 153.39L226.701 153.362L226.429 153.52L226.274 153.338L226.307 153.143L226.104 153.196L225.888 152.891L226.588 153.086Z" fill="black"/>
<path d="M267.816 109.791L267.885 109.576L268.035 109.49L267.917 108.979L267.523 108.78L267.173 108.853L267.157 108.553L267.067 108.529L266.738 108.513L266.567 108.659L266.339 108.561L266.441 108.338L266.091 108.001L266.083 107.689L265.668 107.677L265.355 107.868L264.818 107.405L264.212 107.158L264.204 106.646L264.354 106.241L264.818 106.464L265.188 106.253L265.192 105.186L265.058 104.967L264.517 105.235L264.224 105.162L264.139 104.914L263.789 104.59L263.781 103.77L263.887 103.892L264.281 103.884L264.521 103.762L264.704 103.445L265.034 103.47L265.815 102.922L266.583 102.679L267.022 102.955L267.291 103.441L266.856 103.851L266.778 104.151L266.335 104.687L266.36 104.93L266.482 104.926L266.721 104.533L266.97 104.671L267.022 104.74L266.762 104.963L267.311 105.21L267.413 105.076L267.47 105.636L267.665 105.442L268.007 105.527L268.027 105.32L267.515 104.999L267.86 104.723L268.239 104.679L268.3 104.444L268.442 104.439L268.446 104.671L268.613 104.772L268.446 105.133L268.657 105.304L268.539 105.713L269.072 106.204L269.125 106.557L269.829 106.634L270.439 106.874L270.996 106.768L271.476 107.515L271.647 107.511L271.492 108.095L271.667 108.951L271.541 109.657L271.403 109.758L271.521 110.233L271.883 110.845L271.785 111.28L272.074 111.47L272.371 111.316L272.424 111.673L272.55 111.653L272.672 111.803L272.834 111.742L273.082 111.985L272.977 112.091L273.038 112.257L273.221 112.744L273.082 113.048L272.846 113.016L272.647 112.744L272.245 112.74L272.277 112.594L271.976 113.052L271.679 113.085L270.898 112.874L270.687 112.379L270.801 112.127L270.386 111.661L270.26 111.231L269.756 110.764V110.513L269.45 110.505L269.345 110.781L269.499 110.951L269.178 111.056L268.897 110.76L268.796 110.805L268.767 110.334L267.889 110.091L267.816 109.791Z" fill="black"/>
<path d="M278.426 117.081L278.349 117.133L278.617 116.646L278.386 116.513L278.117 117.085L277.67 117.385L277.519 117.405L277.409 117.085L277.296 117.121L277.202 117.462L277.165 117.182L276.881 117.178L276.995 117.559L276.905 117.657L275.705 117.949L275.539 117.904L275.278 118.127L275.055 118.537L275.197 118.784L275.368 118.76L275.225 119.04L274.977 119.081L274.827 118.862L274.66 118.906L274.733 119.036L274.449 119.133L274.522 119.263L274.798 119.223L274.802 119.498L275.095 119.649L275.026 120.135L274.758 120.172L274.441 120.63L274.058 120.703L273.891 120.971L273.643 120.959L273.212 121.722L272.919 122.533L272.395 122.424L271.703 121.637L271.732 120.858L272.179 120.16L272.671 120.002L273.009 119.547L273.668 119.649L273.611 119.109L273.708 118.999L273.757 118.29L273.607 118.014L273.904 117.462L273.623 116.995L273.896 116.849L273.424 116.099L273.627 115.713L274.514 115.583L274.672 115.202L274.554 114.813L274.29 114.918L274.103 114.508L273.769 114.618L273.346 114.411L273.241 114.245L273.42 113.839L273.399 113.596L273.554 113.385L273.229 112.748L273.046 112.257L273.59 112.034L273.562 111.827L273.875 111.571L273.843 111.47L273.59 111.449L273.562 111.348L273.753 111.19L273.883 111.344L274.298 111.336L274.843 111.604L275.791 111.145L275.876 110.772L276.197 110.326L276.214 109.766L276.511 108.752L276.222 108.455L276.189 108.111L277.088 107.725L277.78 108.735L278.219 108.784L278.349 109.275L278.743 109.912L278.434 109.993L278.06 110.273L277.914 110.687L278.02 111.141L277.235 112.338L277.007 112.999L277.031 113.267L277.304 113.385L277.149 113.924L278.003 114.172L278.117 114.448L278.638 114.638L279.077 114.967L279.557 114.979L279.646 115.243L279.874 115.295L279.789 115.409L279.854 115.523L280.143 115.47L280.256 115.588L280.289 115.884L279.829 116.156L279.874 116.289L280.13 116.346L279.874 116.634L279.992 116.825L279.805 117.34L279.41 117.45L278.853 117.259L279.293 117.194L279.512 117.304L279.541 117.04L279.345 116.991L279.236 117.072L278.642 116.934L278.426 117.081Z" fill="black"/>
<path d="M313.425 76.9239L313.258 77.2119L313.388 77.3134L313.527 77.2525L313.6 77.5162L313.087 77.8205L312.392 79.2891L312.229 80.7902L312.359 81.5813L312.079 81.5083L311.786 81.6178L311.798 82.4982L311.745 82.5875L311.103 82.5631L311.294 82.7213L311.233 82.7862L310.741 82.6767L310.484 82.4739L310.371 82.1696L310.444 81.7071L310.216 81.5205L309.883 81.4069L308.805 81.5164L308.654 81.0742L308.191 80.7943L307.731 81.0255L307.166 80.7578L307.141 79.9545L307.841 79.9504L308.244 79.7273L308.321 79.3135L308.772 78.6725L308.679 78.1734L308.744 77.7596L309.171 77.2241L309.106 76.9807L309.549 76.5182L309.797 75.8691L309.716 75.5851L309.472 75.4269L309.362 75.0577L309.517 74.794L309.504 74.5749L309.256 74.0191L309.297 73.9258L309.565 74.0678L309.728 74.0272L309.903 73.5606L309.813 73.1671L310.09 72.7208L309.752 72.5383L309.675 72.1082L309.244 71.6944L309.338 71.5524L309.447 71.6255L310.163 71.4794L310.83 70.8425L311.119 70.7735L311.505 70.7167L312.001 71.0859L312.587 71.2806L312.811 71.6092L313.71 71.5078L314.002 71.5889L314.104 71.7918L313.864 72.0149L314.055 72.4571L314.775 72.8669L314.987 72.7939L315.056 72.5099L315.422 72.1569L316.418 72.5626L316.622 71.7756L316.581 71.5687L316.858 71.2847L316.813 70.5625L316.91 70.3516L317.496 70.4043L317.972 70.6031L318.318 71.7593L318.163 71.7107L317.956 71.378L317.675 71.4591L317.638 72.1366L317.085 72.4774L317.024 72.7046L317.439 72.9805L317.419 73.4714L317.13 73.2117L316.719 73.5931L316.475 73.6661L316.463 73.9582L317.163 74.0434L317.114 74.3193L316.821 74.579L316.63 74.5992L316.642 74.798L316.825 74.8792L316.89 75.0982L317.085 75.0293L317.333 75.1753L317.215 75.5607L317.024 75.297L316.878 75.3417V76.0111L316.5 76.003L316.646 76.1328L316.695 76.5141L317.236 76.4492L317.248 76.5669L316.98 76.6156L317.26 77.3458L317.122 77.7434L316.528 77.3134L316.634 77.1024L316.256 76.9929L316.361 76.8103L316.593 76.721L316.374 76.4614L315.914 76.6156L315.845 76.3478L315.735 76.3032L315.341 76.2788L314.706 76.4614L314.198 76.8022L314.247 77.1754L314.027 77.2444L313.998 76.6845L313.624 76.6358L313.417 76.7616L313.425 76.9239Z" fill="black"/>
<path d="M236.809 138.416L236.402 139.787L236.341 140.375L236.678 140.85L236.451 141.483L236.475 142.303L236.154 142.489L235.788 143.337L235.885 143.662L235.662 143.8L235.739 144.189L235.422 144.485L235.56 144.773L235.353 144.785L235.141 144.599L234.783 144.631L234.507 144.019L234.08 143.913L234.128 143.621L234.381 143.353L234.303 143.013L234.405 142.761L234.283 142.388L234.092 142.27L233.701 142.315L233.413 142.055L233.209 142.29L232.986 141.897L232.921 141.26L232.599 141.183L232.672 140.935L232.233 140.883L232.111 140.737L231.847 140.696L231.778 140.339L231.859 140.311L231.908 139.799L231.607 139.455L231.168 139.313L230.997 138.736L230.663 138.416L230.399 138.323L230.594 137.917L231.639 137.937L232.046 137.649L232.392 137.791L232.554 137.738L232.839 137.256L233.291 137.402L233.649 137.357L233.579 136.988L233.112 136.444L233.193 136.205L233.421 136.193L233.677 135.775L233.368 135.499L233.291 135.032L233.112 134.996L232.941 134.72L232.839 134.262L232.941 133.702L233.104 133.633L233.221 133.341L233.51 133.426L233.697 133.288L233.799 132.716L233.945 132.497H234.185L234.267 132.12L234.661 131.86L234.673 131.495L234.901 131.089L235.414 131.024L235.609 131.259L235.763 131.263L236.585 130.979L236.922 131.328L236.849 131.519L236.927 131.637L237.293 131.758L237.504 131.58L238.411 131.588L238.61 131.353L238.671 131.053L238.997 130.992L239.664 131.243L239.558 131.876L239.786 131.88L239.692 132.091L239.058 132.485L238.818 133.162L238.379 133.377L238.216 133.73L238.309 133.986L238.606 134.201L238.338 134.42L237.972 134.489L238.049 134.712L238.289 134.854L237.915 135L237.439 136.128L236.809 138.416Z" fill="black"/>
<path d="M290.567 88.8405L291.32 88.3456L292.361 87.2745L293.3 86.7471L294.232 85.1852L294.573 84.9499L294.85 84.4711L295.411 82.6009L295.781 82.1546L297.437 80.9659L298.405 80.7103L299.1 80.26L299.812 79.4973L300.316 78.6859L300.483 78.0408L300.536 76.4667L301.288 74.9453L302.024 75.3348L302.626 75.4646L302.724 75.5823L302.561 76.3896L302.886 76.848L303.635 77.0428L304.102 77.5418L303.781 78.1868L303.224 78.5358L302.581 78.4465L302.37 78.7792L302.435 79.3106L302.297 79.6433L302.439 79.9516L302.158 80.1585L301.918 81.4446L302.187 81.9152L302.455 82.0451L302.638 81.9923L302.821 82.3047L302.179 82.9984L301.89 83.5259L301.943 83.6232L301.321 84.0452L301.308 84.3413L301.479 84.7592L301.443 85.0878L301.597 85.4205L301.402 85.5138L300.89 85.4245L300.739 85.5219L300.58 85.3921L300.389 85.4083L300.222 85.4732L300.092 85.956L299.816 85.8586L299.592 85.9763L298.718 86.0736L298.486 86.4469L298.758 86.6741L298.701 87.1569L298.62 87.6275L298.226 88.1955L298.466 88.52L298.742 88.5849L298.933 88.9622L298.791 89.4815L298.962 90.0455L298.872 90.3619L298.917 90.9055L298.819 91.0759L298.726 90.938L298.352 90.9096L298.307 90.6013L297.681 89.9724L297.632 90.3619L297.298 90.6581L296.635 90.7717L296.745 91.5546L296.704 91.6561L296.363 91.6155L296.245 92.0009L296.347 92.1794L295.741 92.431L295.476 92.4188L295.521 92.8245L295.2 93.0963L294.712 92.9178L294.565 93.1734L294.464 93.1085L294.415 92.9137L294.26 92.8123L294.472 92.4675L294.378 92.2809L294.435 91.9847L294.036 91.8021L293.618 91.3599L293.601 90.7311L293.431 90.3497L293.101 90.2564L292.06 90.585L291.763 91.2179L291.279 91.4329L291.173 92.1023L291.072 92.1186L290.954 91.863L290.608 91.8386L290.197 92.1064L289.693 92.1145L289.315 92.5446L288.928 92.2646L289.152 91.7413L289.001 91.5141L288.245 91.3559L287.834 91.3924L287.867 91.9157L287.55 92.4472L286.992 92.8732L286.752 92.1916V91.8792L286.594 91.6358L286.582 91.153L286.248 91.0516L285.963 90.723L288.168 89.9197L288.904 89.3801L289.254 89.2584L289.628 88.8121L290.079 88.9257L290.567 88.8405ZM292.601 78.7913L292.361 79.3025L292.438 79.7366L292.723 79.8583L293.378 79.5946L293.459 79.6961L292.881 81.2905L291.763 82.1952L291.316 82.2195L290.905 82.467L290.604 82.4061L290.518 82.2154L291.051 81.9842L291.19 81.6434L291.149 81.2986L291.6 80.8929L291.694 80.5318L291.592 80.6981L291.381 80.4628L291.133 80.4223L290.905 80.8482L290.738 80.7509L290.742 80.3939L290.649 80.333L290.791 80.191L290.803 79.6352L291.202 79.1281L291.486 78.483L291.804 78.3288L292.08 77.9272L292.369 77.8542L292.556 77.2294L292.999 77.1239L292.82 78.4262L292.601 78.7913Z" fill="black"/>
<path d="M285.378 107.432L285.373 107.217L285.715 106.953L285.609 106.438L285.963 106.32L285.674 105.923L285.939 105.639V105.27L285.707 105.051L285.272 105.18L285.146 104.957L285.174 104.511L285.016 104.328L285.19 103.809L284.873 103.525L284.548 102.799L284.048 102.649L284.027 102.442L283.604 102.438L283.486 102.28L283.531 102.061L283.771 101.959L283.913 101.529L284.381 101.387L284.515 101.521L284.686 101.493L284.898 101.063L285.077 101.022L285.227 100.649L285.634 100.34L285.792 99.7034L285.5 99.602L285.312 99.3992L285.317 99.0705L285.622 98.7825L285.642 98.5715L285.487 98.3484L286.053 97.6141L286.089 97.2976L286.053 97.0826L285.634 96.8149L285.581 96.6079L285.947 96.259L286.118 95.9304L286.11 95.6262L286.268 95.4111L286.516 95.3422L286.467 95.1434L286.382 95.1596L286.427 94.8472L286.907 94.5632L286.988 92.8674L287.545 92.4414L287.862 91.9099L287.83 91.3866L288.241 91.3501L288.997 91.5083L289.148 91.7355L288.924 92.2629L289.31 92.5428L289.689 92.1128L290.193 92.1006L290.604 91.8369L290.949 91.8613L291.067 92.1128L291.165 92.0966L291.271 91.4272L291.755 91.2121L292.052 90.5752L293.097 90.2466L293.426 90.3399L293.597 90.7212L293.613 91.3501L294.032 91.7923L294.431 91.9749L294.374 92.271L294.467 92.4536L294.256 92.8025L294.41 92.8999L294.459 93.0946L293.829 93.4313L293.101 93.5774L293.097 94.0196L292.706 94.0845L292.316 94.5632L292.324 94.9649L292.08 95.6383L292.104 96.1657L292.613 96.466L292.788 96.4944L292.873 96.3686L293.231 96.47L293.41 96.3077L293.695 96.2672L294.032 96.3686L294.15 96.8351L294.122 97.4356L293.703 97.7115L293.796 98.1618L293.967 98.3403L293.955 98.6689L293.772 98.8636L293.585 98.7298L293.52 98.7987L293.699 99.1071L293.963 99.1395L294.077 99.4113L293.943 99.5533L294.097 100.271L294.345 100.348L294.492 100.559L294.638 100.523L294.598 100.71L294.809 101.136L294.728 101.347L294.565 101.342L294.268 101.724L293.874 101.728L293.654 101.265L292.938 101.253L292.849 101.42L292.653 101.456L292.458 101.241L292.462 100.969L291.881 100.734L291.161 101.833L290.868 101.582L290.787 101.631L290.392 102.43L290.75 102.779L290.343 103.225L290.64 103.943L290.404 104.608L290.258 104.552L290.03 104.815L290.164 104.921L289.998 105.148L290.169 105.679L289.868 105.785V106.057L290.083 106.329L290.026 106.621L289.355 106.876L288.863 107.286L288.342 107.546L288.257 107.72L288.05 107.724L287.862 108.101L287.427 108.146L287.086 108.252L286.996 108.093L286.366 107.972L286.016 108.199L285.508 108.304V108.097L285.251 107.769L285.378 107.432Z" fill="black"/>
<path d="M273.221 112.743L273.547 113.38L273.392 113.591L273.413 113.831L273.238 114.241L273.343 114.407L273.762 114.61L274.096 114.5L274.287 114.91L274.551 114.8L274.669 115.19L274.511 115.575L273.624 115.705L273.421 116.09L273.888 116.841L273.62 116.987L273.901 117.458L273.608 118.009L273.758 118.285L273.705 118.995L273.608 119.105L273.665 119.644L273.006 119.543L272.672 119.993L272.18 120.152L271.733 120.849L270.915 120.987L270.647 120.821L270.379 120.817L269.911 121.093L269.821 120.862L269.671 120.809L269.96 120.066L269.846 119.859L269.61 119.774L269.634 119.563L269.171 119.174L269.219 118.955L269.83 118.366L269.984 118.131L269.98 117.843L270.2 117.734L270.529 117.884L270.688 117.64L270.602 117.377L270.24 117.174L270.159 116.476L269.996 116.2L270.244 116.05L270.322 115.604L270.289 115.129L270.074 114.622L270.305 114.257L270.22 114.074L270.065 114.046L270.273 113.084L270.48 112.906L270.545 112.354L270.688 112.378L270.899 112.873L271.68 113.084L271.977 113.052L272.278 112.593L272.245 112.739L272.648 112.743L272.847 113.015L273.083 113.048L273.221 112.743Z" fill="black"/>
<path d="M226.824 130.62L227.21 130.563L227.409 130.709L227.767 131.403V131.849L227.519 132.174L227.613 132.3L227.527 132.498L226.873 132.742L226.604 133.087L226.088 133.277L226.1 133.001L225.774 132.803L225.807 132.45L226.38 131.995L226.405 131.748L226.214 131.646L226.291 131.476L226.185 131.358L225.429 131.346L224.989 131.634L224.367 131.598L224.29 131.999L223.908 132.604L223.517 132.835L223.176 133.281L222.643 133.476L222.74 133.257L222.98 133.16L223.391 131.922L222.866 131.302L222.944 131.119L222.716 131.082L222.643 131.249L222.277 130.896L222.033 130.182L221.776 129.849L221.748 129.618L221.935 129.322L222.029 128.681L222.423 128.571L222.651 128.863L222.59 129.338L222.748 129.374L222.85 129.204L223.261 129.456L223.269 130.117L223.115 130.113L223.176 130.405L223.045 130.673L223.285 130.697L223.525 131.005L223.92 130.547L224.583 130.965L224.815 130.863L224.192 130.133L224.351 129.537L224.196 129.155L223.627 128.774L222.993 128.823L222.655 128.664L222.525 127.849L222.342 127.886L222.431 128.214L222.073 128.454L221.996 128.161L222.256 128.129L222.163 127.849L221.829 127.825L221.691 127.549L221.394 127.35L221.17 127.354L221.223 126.993L221.459 126.823L221.353 126.247L221.516 125.784L221.756 125.971L222.122 125.614L222.24 125.723L222.098 125.938L222.175 126.048L222.48 126.109L222.748 125.922L222.887 126.052L223.021 125.869L223.106 126.21L222.866 126.612L223.293 127.172L223.306 127.683L223.867 127.918L224.282 127.877L224.428 128.23L224.388 128.401L224.176 128.441L224.156 128.587L224.623 128.9L225.254 129.569L226.393 129.845L226.372 130.089L226.096 130.226L225.77 130.604L226.116 130.904L226.824 130.62ZM219.373 116.704L219.515 116.242L219.287 116.53L218.751 116.51L218.547 116.388L218.759 116.331L218.873 116.153L218.925 115.345L219.198 114.798L219.365 114.725L219.357 114.554L219.039 114.51L219.027 114.36L219.178 114.181L219.3 113.601L219.885 113.572L220.044 113.183L220.333 113.041L220.597 113.159L220.723 113.406L220.499 113.998L220.528 114.502L220.219 114.992L219.69 115.491L219.922 115.885L219.816 116.339L220.015 116.364L220.06 116.481L219.702 116.782L219.714 116.944L219.869 117.009L219.597 117.264L219.348 117.212L218.978 118.615L218.421 119.058L218.34 118.875L218.047 118.879L218.356 116.672L218.551 116.794L218.502 117.041L218.848 116.928L218.856 116.769L219.373 116.704ZM215.456 131.857L215.513 132.34L215.895 132.673L215.863 132.807L215.273 132.847L215.184 132.665L214.883 132.766L214.822 133.001L215.029 133.111L215.074 133.269L214.899 133.448L214.745 133.395L214.602 133.123L213.951 133.281L213.5 133.074L213.61 132.742L213.691 132.863L214.082 132.697L213.903 132.425L213.833 131.655L213.968 131.472L214.159 131.488L214.378 131.764L215.192 131.306L215.188 131.496L215.456 131.857ZM217.563 128.94L217.437 129.569L217.701 129.553L218.055 129.318L218.185 129.374L218.197 129.606L217.502 130.21L217.535 130.73L217.254 130.705L217.201 131.147L217.071 131.082L217.197 130.458L217.01 129.926L216.9 130.048L216.656 129.938L216.823 129.626L217.107 129.634L217.059 129.143L217.543 128.64L217.478 128.251L217.632 127.849L217.697 128.393L217.563 128.94ZM220.926 125.796L221.053 125.837L221.077 125.699L220.853 125.703L220.914 125.549L221.17 125.516L221.236 125.784L221.158 125.89L221.288 126.015L221.097 126.1L221.085 126.271L220.902 126.311L220.992 126.457L220.442 127.382L219.69 127.804L219.523 127.691L219.552 127.472L219.706 127.65L219.885 127.638L219.771 127.281L220.146 127.07L219.963 126.831L220.276 126.32L220.8 125.792L220.926 125.796ZM215.595 130.884L215.932 131.095L215.757 131.646L215.452 131.448L215.42 130.928L215.595 130.884ZM216.79 130.73L216.575 130.624L216.412 130.356L216.701 130.397L216.55 130.178L216.632 130.044L216.998 130.377L216.953 130.876L216.79 130.73ZM217.864 126.595L217.856 126.766L217.986 126.823L217.758 126.936L217.774 127.034L217.311 126.936L217.286 126.827L217.465 126.673L217.701 126.66L217.722 126.531L217.864 126.595ZM216.245 131.297L216.18 131.131L216.038 131.099L216.03 130.928L215.696 130.713L215.83 130.567L216.062 130.632L216.168 130.932L216.318 130.604L216.392 130.632L216.445 130.807L216.266 131.026L216.347 131.143L216.245 131.297ZM219.987 125.861L220.211 125.188V126.036L219.918 125.995L219.987 125.861ZM221.341 124.823L221.158 124.94L220.711 124.916L221.187 124.539L221.406 124.681L221.341 124.823ZM217.217 127.622L217.124 127.675L216.965 127.549L217.095 127.33L217.27 127.439L217.51 127.366L217.437 127.642L217.217 127.622Z" fill="black"/>
<path d="M268.219 114.813L268.37 114.489L268.109 114.432L268.097 114.103L268.219 113.896L268.52 113.722L268.333 113.629L268.553 113.138L268.492 112.558L268.191 112.055L268.382 111.227L268.207 111.126L268.577 110.919L268.186 110.862L267.617 110.533L267.715 110.387L267.682 109.994L267.519 109.896L267.637 109.771L267.812 109.791L267.89 110.091L268.768 110.334L268.797 110.805L268.898 110.76L269.179 111.057L269.5 110.951L269.346 110.781L269.451 110.505L269.756 110.513V110.76L270.261 111.227L270.383 111.657L270.802 112.128L270.684 112.379L270.541 112.355L270.48 112.907L270.273 113.085L270.065 114.047L270.22 114.079L270.305 114.262L270.074 114.627L270.289 115.138L270.322 115.609L270.244 116.055L269.996 116.205L269.472 116.278L268.984 116.602L268.325 116.546L267.487 116.846L266.824 116.882L266.324 117.203L265.901 117.276L265.726 117.26L265.673 116.903L265.563 116.866L266.608 116.521L267.357 115.84L267.751 115.235L268.219 114.813Z" fill="black"/>
<path d="M257.046 114.379L256.473 114.821L256.282 115.519L255.485 115.3L255.273 115.438L254.525 115.3L254.273 114.983L253.622 115.101L253.512 115.227L253.61 115.316L252.707 115.624L252.426 115.284L252.377 114.578L251.885 113.908L251.889 113.349L251.723 112.578L251.841 112.123L251.19 111.312L251.194 110.663L251.381 110.172L250.97 109.677L251.117 109.576L251.214 109.235L251.369 109.324L252.105 109.068L251.971 108.586L252.081 108.431L252.398 108.565L252.89 108.367L252.975 108.164L252.89 107.969L253.28 107.868L253.598 106.882L254.289 107.137L254.805 107.141L255.241 107.442L255.452 107.811L255.721 107.608L255.802 107.389L256.274 107.19L256.286 106.995L256.896 106.821L256.835 107.182L256.912 107.251L257.233 107.336L257.616 107.267L257.896 107.506L257.986 107.677L257.937 107.924L258.136 108.05L258.059 108.338L258.267 108.594L258.868 108.22L259.088 108.33L259.369 108.277L259.934 107.807L260.056 107.9L259.877 108.225L260.133 108.492L260.101 108.809L259.828 108.78L259.731 108.886L259.633 109.332L259.393 109.434L259.369 109.811L258.995 110.03L259.076 110.269L259.015 110.638L258.873 110.768L259.149 111.113L258.864 111.645L258.938 111.835L259.377 112.225L259.596 112.781L259.393 112.914L259.312 112.801L259.043 112.797L258.328 113.6L258.177 113.961L257.778 114.2L257.258 114.225L257.046 114.379ZM259.186 115.531L259.035 115.556L259.312 115.267L258.962 115.349L258.689 115.872L258.596 115.633L258.746 115.434L258.702 115.336L258.498 115.219L258.022 115.422L257.937 115.32L258.12 114.971L259.617 114.424L259.568 114.614L259.69 114.752L259.527 115.665L259.365 115.454L259.186 115.531Z" fill="black"/>
<path d="M231.521 128.423L231.664 128.322L231.859 127.762L231.517 127.466L231.529 127.214L231.383 127.137L231.432 126.983L231.643 126.878L231.7 126.618L231.582 126.233L231.46 126.168L231.651 125.888L231.851 125.835L231.973 125.166L232.628 124.606L233.006 124.513L233.4 124.622L234.177 124.577L234.124 124.391L234.283 124.18L234.161 123.855L234.222 123.705L234.352 123.531L235.076 123.9L236.121 123.949L236.158 123.766L236.564 123.401L236.764 123.011L237.447 122.809L238.098 123.137L238.606 123.815L238.716 124.253L238.679 124.979L238.549 125.04L238.387 125.531L237.829 125.369L237.756 125.486L237.959 125.75L237.911 125.839L237.541 125.88L237.455 126.119L237.158 126.074L237.061 125.904L236.772 125.965L236.723 126.253L236.865 126.862L237.476 127.068L238.24 126.74L238.785 127.129L239.989 126.857L239.436 127.681L239.232 128.192L239.517 128.318L239.956 128.119L240.087 128.233L239.806 128.371L239.643 128.647L240.046 128.764L240.168 128.776L240.286 128.488L240.526 128.829L240.672 128.76L240.66 128.553L240.778 128.496L240.806 128.821L240.603 128.967L240.184 128.922L239.879 129.482L239.928 129.596L240.164 129.673L240.266 129.86L240.558 129.754L240.741 129.904L241.408 129.933L241.437 130.038L240.579 130.148L240.648 130.46L240.896 130.452L240.566 130.76L240.835 131.044L240.253 131.458L239.879 131.267L239.777 131.888L239.55 131.884L239.655 131.251L238.988 131L238.663 131.061L238.602 131.361L238.403 131.596L237.496 131.588L237.284 131.766L236.918 131.645L236.841 131.527L236.914 131.336L236.577 130.987L235.755 131.271L235.601 131.267L235.405 131.032L234.836 130.517L234.751 129.596L234.511 128.939L234.161 128.622L234.084 128.148L233.661 127.705L233.087 127.6L232.672 127.827L232.619 128.127L232.957 128.618L232.884 128.963L232.685 129.219L232.53 129.215L232.367 128.959L232.111 128.939L231.867 128.618L231.513 128.549L231.521 128.423Z" fill="black"/>
<path d="M223.176 126.278L223.449 126.667L223.514 126.294L223.437 126.217L223.709 125.653L222.997 125.11L223.193 125.049L223.087 124.911L223.197 124.781L223.355 124.838L223.498 125.162L223.611 125.073L223.384 124.594L223.372 124.465L223.591 124.452L223.51 124.095L223.77 124.29L223.9 124.274L223.908 124.164L224.185 124.152L224.197 124.29L224.498 124.546L224.242 124.846L224.49 125.065L224.954 125.142L225.067 125.077L225.047 124.943L226.117 124.976L226.397 124.846L226.747 124.943L226.938 124.858L227.63 125.292L227.943 125.361L228.195 125.649L228.598 125.264L228.899 125.162L229.065 125.248L229.057 126.16L228.85 126.148L228.642 126.497L227.89 127.073L227.65 127.495L227.581 127.994L227.048 127.99L226.967 127.779L226.609 127.544L226.532 127.812L225.804 128.396L226.528 129.637L226.544 129.804L226.373 129.816L225.234 129.54L224.604 128.87L224.136 128.558L224.156 128.412L224.368 128.371L224.409 128.201L224.262 127.848L223.847 127.889L223.286 127.653L223.274 127.142L222.847 126.582L223.087 126.181L223.176 126.278ZM222.522 122.635L222.273 122.623L222.115 122.176L221.964 122.379L221.879 122.079L222.017 121.876L221.94 121.718L222.371 121.174L222.928 121.377L222.822 121.722L223.034 121.905L222.802 122.022L223.119 122.132L223.05 122.351L222.607 122.371L222.522 122.635ZM222.619 125.333L222.77 124.927L223.087 125.312L222.839 125.288L222.806 125.459L222.611 125.552L222.489 125.43L222.619 125.333Z" fill="black"/>
<path d="M276.186 108.111L276.214 108.455L276.503 108.752L276.206 109.766L276.19 110.326L275.873 110.772L275.787 111.145L274.835 111.604L274.294 111.336L273.88 111.34L273.745 111.186L273.554 111.344L273.583 111.45L273.835 111.466L273.867 111.571L273.554 111.823L273.583 112.034L273.038 112.257L272.977 112.091L273.082 111.985L272.834 111.742L272.672 111.803L272.55 111.652L272.424 111.673L272.371 111.316L272.074 111.47L271.785 111.279L271.883 110.845L271.521 110.232L271.403 109.758L271.541 109.656L271.667 108.95L271.492 108.094L271.647 107.51L271.476 107.514L270.996 106.768L271.179 106.468L271.33 106.427L271.354 106.224H271.618L271.761 106.386L271.993 106.273L272.416 105.153L272.729 105.465L272.916 105.425L273.103 105.068L273.627 105.019L273.77 104.585L274.217 104.715L274.274 104.411L273.937 103.697L274.063 103.425L274.335 103.372L275.071 103.749L275.177 104.183L275.445 104.212L275.397 104.861L275.714 104.979L275.84 104.776L276.064 105.064L275.966 105.425L276.222 105.685L276.186 106.09L276.401 106.435L276.178 106.614L276.161 107.157L276.031 107.368L276.023 107.746L275.893 107.831L276.186 108.111Z" fill="black"/>
<path d="M243.255 109.653L243.369 109.332L243.869 108.955L243.902 108.683L244.105 108.412L245.126 107.681L245.703 107.462L245.931 107.255L246.098 106.939L246.151 106.286L245.76 106.127L245.801 105.977L246.256 105.791L246.46 105.912L246.806 105.843L246.85 105.758L246.598 105.616L247.184 105.495L247.281 105.365L248.148 105.158L248.554 105.174L248.526 104.91L249.002 104.959L249.169 104.57L249.547 104.31L249.917 104.74L250.356 104.671L250.523 104.537L251.401 104.667L250.909 104.789L250.742 104.996L250.942 105.397L251.405 105.673L251.34 106.663L251.17 106.914L251.279 107.576L250.019 108.136L250.027 108.253L250.275 108.306L250.368 108.586L250.006 108.87L249.937 109.495L249.701 109.405L249.124 109.576L248.725 109.255L248.404 109.507L247.936 109.223L247.774 109.251L246.797 110.602L246.313 110.704L245.968 111.109L246.122 111.3L246.403 111.385L246.407 111.738L245.691 111.795L245.093 112.225L244.43 112.172L244.329 112.006L244.162 112.063L244.19 112.164L243.983 112.339L243.772 112.168L243.267 112.221L243.182 112.4L243.019 112.205L242.698 112.16L242.572 112.623L241.982 112.972L241.86 113.166L242.084 113.304L241.799 113.722L241.714 114.444L241.457 114.72L241.213 114.793L241.091 115.053L241.291 115.308L240.961 115.491L240.766 115.779L240.705 115.905L240.88 116.266L240.424 116.907L240.144 116.651L239.761 116.935L239.334 116.976L238.981 116.627L238.911 116.315L239.135 115.69L238.375 115.706L238.126 115.037L238.395 114.777L238.403 114.444L238.578 114.379L238.24 113.349L238.708 113.361L239.322 113.178L239.863 112.562L240.323 112.229L240.416 111.961L240.672 111.88L241.144 111.377L241.449 110.874L242.612 109.909L243.255 109.653ZM250.616 98.5652L250.458 98.3623L250.263 98.3339L250.332 98.0053L250.21 97.9364L250.242 97.5834L250.596 97.1818L251.035 97.056L251.357 97.1899L251.881 97.7822L251.759 98.3907L251.576 98.4678L251.536 98.2406L251.479 98.4232L251.243 98.4597L251.487 98.5165L251.531 98.7437L251.426 98.7721L250.698 98.7924L250.755 98.6179L250.616 98.5652ZM231.9 85.1L232.03 85.0229L232.115 85.1122L232.026 85.242L232.067 85.6356L231.757 85.9926L231.233 85.7735L231.094 85.384L231.343 85.2177L231.9 85.1ZM249.413 99.0196L249.522 99.0561L249.486 99.19L249.108 99.3766L249.242 99.5794L249.152 99.835L248.973 99.8107L248.823 99.5226L248.68 99.5105L248.603 99.6038L248.778 100.058L248.359 99.7985L248.615 99.2955L248.904 99.2752L248.896 99.0885L249.173 99.1575L249.413 99.0196ZM249.876 99.5794L249.339 100.091L249.429 99.7539L249.303 99.4293L249.408 99.3563L249.514 99.478L249.543 99.2752L249.693 99.2427L249.852 99.332L249.876 99.5794ZM248.823 100.103L249.372 100.318L249.315 100.46L248.835 100.395L248.823 100.103Z" fill="black"/>
<path d="M294.727 101.347L294.808 101.136L294.597 100.71L294.638 100.524L294.943 100.114L295.443 100.106L295.817 99.6961L296.435 99.5338L296.622 99.2174L297.245 99.189L297.415 98.8806L297.424 98.5033L297.924 97.7041L298.208 97.7244L298.896 98.0733L299.14 98.0124L299.534 98.1301L299.884 98.0449L300.62 98.5885L301.653 98.3938L301.865 98.5885L302.064 98.5155L302.19 98.2802L302.532 98.4465L302.463 98.8076L302.812 99.6028L302.971 99.6433L303.13 99.5014L303.418 100.069L303.443 100.491L304.122 101.798L304.033 102.337L303.89 102.447L303.516 102.475L303.447 102.305L303.235 102.362L303.052 102.248L302.886 102.548L302.162 102.422L301.889 102.747L301.665 102.629L301.295 102.779L301.181 102.426L300.535 102.731L300.026 102.743L299.811 102.499L299.494 102.439L299.327 102.086L298.473 102.025L298.054 101.798L297.379 101.684L297.094 101.465L296.529 101.7L296.456 101.879L296.012 101.996L295.732 101.781L295.26 101.7L295.142 101.441L294.727 101.347Z" fill="black"/>
<path d="M297.789 111.453L297.354 112.285L296.853 112.698L296.658 113.21L296.776 113.518L296.593 113.587L296.398 113.485L296.231 113.562L296.15 113.773L295.637 114.074L295.483 114.017L295.044 113.603L295.137 113.485L295.08 113.335L294.783 113.201L294.787 112.873L295.088 112.577L294.893 112.138L295.003 112.057L294.922 111.331L295.194 111.084L294.974 110.463L295.174 109.964L296.008 110.029L296.117 109.741L295.393 109.096L294.45 108.889L293.335 109.222L292.969 109.858L293.132 110.061L293.043 110.305L291.794 110.978L291.469 111.522L291.542 111.928L291.261 112.427L290.643 112.893L290.423 113.449L290.428 113.741L290.733 114.029L290.696 114.118L288.878 113.477L288.04 113.449L287.292 113.631L286.21 113.384L284.762 113.356L284.697 112.414L284.872 111.915L285.99 111.291L286.511 110.512L286.523 110.082L287.117 109.27L287.308 109.173L287.276 108.982L287.507 108.747L287.3 108.544L287.426 108.146L287.861 108.102L288.048 107.724L288.256 107.72L288.341 107.546L288.862 107.286L289.354 106.877L290.025 106.621L290.082 106.329L289.866 106.057V105.785L290.167 105.68L289.996 105.148L290.163 104.921L290.029 104.816L290.257 104.552L290.403 104.609L290.639 103.943L291.021 105.233L290.867 105.712L290.96 106.146L290.773 106.524L290.907 107.051L291.184 107.258L291.493 107.047L291.802 107.193L292.083 108.284L292.363 108.487L292.868 108.536L293.161 108.28L292.998 107.201L293.173 106.954L293.152 106.26L293.555 105.891L293.787 106.402L294.206 106.353L294.389 106.747L295.528 106.556L295.678 106.447L295.963 106.475L296.235 106.317L296.849 106.305L296.91 106.402L297.053 107.019L296.939 107.412L296.707 107.664L296.805 108.28L297.089 108.499L297.142 108.775L297.76 108.86L297.488 109.254L297.431 109.664L297.687 109.765L297.634 110.305L298.053 110.641L298.009 111.262L297.789 111.453Z" fill="black"/>
<path d="M306.987 91.1809L306.95 91.9883L307.06 92.3899L306.97 92.9173L307.222 93.323L307.186 93.4529L306.799 93.538L306.686 93.6922L306.917 94.4833L306.926 95.2176L306.551 95.9722L306.466 96.4469L306.193 96.5281L306.08 96.3698L305.897 96.3779L305.73 96.5686L305.453 96.4713L305.433 96.6822L305.327 96.735L304.693 96.7674L304.64 96.95L304.233 97.1407L304.184 97.4977L303.725 97.3841L303.497 98.0697L302.83 98.4227L302.533 98.447L302.191 98.2807L301.984 97.9602L302.021 97.8466L301.866 97.7492L301.415 97.8222L301.126 97.6478L300.715 97.7654L300.264 97.3719L300.28 97.1366L299.853 96.8202L299.926 96.4307L300.41 95.8019L300.276 95.4935L300.439 95.0067L300.772 94.743L300.634 94.4671L300.134 94.4955L299.536 94.1953L299.609 93.6395L299.849 93.2784L299.735 92.8037L300.15 92.2317L299.735 92.0532L299.971 91.4284L300.353 91.254L300.642 90.8401L301.191 90.7428L301.565 90.4385L301.821 90.402L301.915 90.2275L302.236 90.1464L302.342 89.9801L303.481 89.6271L303.554 89.2579L304.107 89.0186L305.091 89.1322L306.063 89.5379L306.478 89.9354L306.572 90.3127L306.917 90.2925L306.852 91.0471L306.987 91.1809Z" fill="black"/>
<path d="M300.031 113.243L299.754 113.085L299.697 112.918L299.673 112.354L299.766 112.151L300.263 112.326L300.474 112.699L300.409 113.308L300.031 113.243ZM299.173 115.738L299.038 116.667L298.839 116.505L298.815 116.294L299.173 115.738ZM298.595 116.626L298.697 116.736L298.449 116.817L298.595 116.626ZM303.606 104.017L303.272 103.993L303.191 103.616L302.988 103.794L302.866 104.427L302.996 104.731L303.097 104.67L303.276 104.958L302.922 104.877L302.544 104.995L302.54 104.841L302.345 104.747L302.211 104.476L301.121 103.96L300.812 104.33L300.612 104.139L300.523 104.232L300.844 104.484L300.767 105.303L300.645 105.315L300.096 104.549L299.221 104.265L298.872 104.33L298.632 103.928L298.384 103.94L298.197 103.717L297.952 103.664L297.098 103.194L296.456 101.879L296.533 101.701L297.094 101.465L297.383 101.684L298.058 101.802L298.477 102.029L299.331 102.09L299.498 102.443L299.815 102.508L300.031 102.751L300.539 102.735L301.186 102.431L301.3 102.784L301.674 102.634L301.898 102.751L302.17 102.427L302.894 102.557L303.061 102.252L303.244 102.366L303.455 102.309L303.524 102.48L303.903 102.451L304.342 103.368L304.484 103.676L304.256 103.806L304.419 103.96L304.082 104.192L303.606 104.017ZM301.32 119.28L301.43 119.093L301.418 118.878L301.206 118.663L300.828 118.708L300.665 119.113L300.738 119.369L301.019 119.405L301.32 119.28ZM303.15 128.736L303.545 128.98L303.606 128.696L303.764 128.659L303.663 128.29L303.439 128.27L303.081 127.905L302.886 127.909L302.821 128.201L302.935 128.428L303.105 128.481L303.15 128.736ZM303.15 128.736L303.545 128.98L303.606 128.696L303.764 128.659L303.663 128.29L303.439 128.27L303.081 127.905L302.886 127.909L302.821 128.201L302.935 128.428L303.105 128.481L303.15 128.736Z" fill="black"/>
<path d="M262.626 121.556L261.776 121.909L261.414 122.221L261.341 122.428L260.833 122.797L260.349 123.081L259.974 123.158L259.714 123.885L259.352 123.868L259.267 124.059L259.372 124.116L259.25 124.189L258.392 124.1L258.075 123.617L258.034 123.426L258.226 123.207L258.132 122.883L257.331 122.862L257.29 122.051L257.083 121.54L256.798 121.609L256.696 121.422L256.538 121.475L256.367 121.803L256.119 121.884L255.798 121.755L255.533 121.39L254.797 121.459L254.252 121.248L254.102 121.028L254.329 120.663V120.241L254.22 120.043L254.337 119.767L254.59 119.677L254.647 119.471L255.053 119.13L255.289 119.207L255.403 119.004L255.712 118.886L256.273 118.785L256.623 119.178H256.814L257.29 118.809L257.794 118.752L257.925 118.615L257.9 118.444L258.201 118.209L258.893 118.136L259.555 118.241L259.669 118.12L260.113 118.355L260.283 118.266L260.349 117.876L261.491 117.556V117.937L261.796 118.136L261.504 119.337L261.54 119.783L261.735 119.998L261.882 119.771L262.122 120.205L262.378 120.351L262.167 120.509L262.451 120.586L262.394 120.773L261.87 121.154L261.833 121.288L261.943 121.373L262.748 121.39L262.805 121.475L262.626 121.556Z" fill="black"/>
<path d="M251.409 105.668L252.003 105.785L252.194 105.72L252.385 105.371L252.784 105.169L253.516 105.014L254.102 105.25L254.834 105.319L256.204 105.225L256.477 105.075L257.046 105.144L257.798 105.063L258.929 104.763L259.157 104.45L259.466 104.43L259.519 104.272L259.767 104.219L260.048 104.43L260.202 104.743L260.153 105.156L260.353 105.919L260.649 106.057L260.613 106.495L260.91 106.885L260.849 107.059L260.955 107.53L260.288 107.996L260.052 107.891L259.93 107.798L259.364 108.268L259.084 108.321L258.864 108.211L258.262 108.585L258.055 108.329L258.132 108.041L257.933 107.915L257.981 107.668L257.892 107.497L257.611 107.258L257.229 107.327L256.908 107.242L256.831 107.173L256.892 106.812L256.281 106.986L256.269 107.181L255.797 107.38L255.716 107.599L255.448 107.802L255.236 107.432L254.801 107.132L254.285 107.128L253.593 106.873L253.276 107.858L252.885 107.96L252.971 108.155L252.885 108.357L252.393 108.556L252.076 108.422L251.966 108.576L252.101 109.059L251.364 109.315L251.21 109.226L251.112 109.566L250.966 109.668L250.795 109.465L249.941 109.595V109.489L250.01 108.865L250.372 108.581L250.278 108.301L250.03 108.248L250.022 108.13L251.283 107.57L251.173 106.909L251.344 106.657L251.409 105.668Z" fill="black"/>
<path d="M281.802 92.6658L282.335 92.9416L282.733 92.8483L283.522 92.8849L283.998 92.4345L284.145 92.0248L284.133 91.5339L284.283 91.2458L284.828 90.9578L285.959 90.7144L286.243 91.043L286.577 91.1444L286.589 91.6312L286.748 91.8747V92.187L286.988 92.8686L286.906 94.5644L286.426 94.8484L286.382 95.1608L286.467 95.1446L286.516 95.3434L286.268 95.4124L286.109 95.6274L286.117 95.9317L285.946 96.2603L285.58 96.6092L285.198 96.5808L284.856 96.2481L284.568 96.386L284.108 96.244L283.994 95.9276L283.445 96.2522L283.36 96.2359L283.344 95.8789L283.104 95.8586L282.51 96.1386L282.408 95.96L282.184 95.9682L281.338 96.7877L281.237 97.2542L280.671 97.7492L280.533 97.7167L280.639 97.4206L280.501 97.1082L280.126 96.9013L279.984 97.0473L279.882 96.808L279.569 97.0352L279.451 97.4652L279.215 97.4977L279.154 97.1366L279.285 96.9662L279.102 96.1994L279.407 95.0026L279.22 94.7673L279.142 94.3089L279.455 93.8098L279.362 93.6232L279.427 93.2297L279.651 92.966L279.895 91.5501L280.464 90.9943L280.761 90.8888L281.265 90.9294L280.724 91.8584L281.302 92.4913L281.582 92.6942L281.802 92.6658Z" fill="black"/>
<path d="M271.436 124.506L271.216 124.66L271.086 124.94L271.123 125.228L270.928 125.26L270.826 125.118L270.956 124.814L270.635 124.859L269.87 124.554L268.915 124.4L268.093 123.909L267.926 123.609L267.987 123.289L267.471 123.033L267.869 122.818L267.971 122.587L267.385 122.092L266.32 121.601L266.043 121.029L265.73 120.875L265.279 121.004L265.364 120.059L266.003 119.8L266.202 119.544L265.905 119.236L265.449 119.134L265.697 118.875L265.819 118.538L266.173 118.566L266.295 118.424L266.242 118.12L265.937 118.039L265.763 117.544L265.356 117.106L265.409 116.911L265.555 116.854L265.665 116.891L265.718 117.248L265.893 117.264L266.316 117.191L266.816 116.87L267.479 116.834L268.317 116.534L268.976 116.59L269.464 116.266L269.988 116.193L270.151 116.469L270.232 117.167L270.594 117.369L270.68 117.637L270.521 117.881L270.192 117.73L269.968 117.84L269.972 118.128L269.817 118.359L269.211 118.948L269.159 119.167L269.622 119.556L269.598 119.771L269.834 119.856L269.948 120.063L269.659 120.806L269.813 120.858L269.899 121.09L270.366 120.814L270.635 120.818L270.903 120.984L271.721 120.846L271.692 121.625L272.384 122.412L272.908 122.522L272.774 122.704L272.713 123.171L272.323 123.276L272.229 123.621L272.522 123.735L272.494 123.877L271.648 124.469L271.436 124.506Z" fill="black"/>
<path d="M236.845 119.633L236.605 119.467L236.463 119.824L236.162 119.966L236.044 119.885L236.105 119.645L235.926 119.589L235.613 120.181L234.913 120.599L234.027 120.282L234.059 119.962L233.14 119.443L232.859 119.597L232.729 119.954L231.981 120.676L231.904 120.437L232.091 120.084L232.079 119.402L231.647 118.785L231.696 118.538L232.001 118.485L232.225 118.035L232.127 117.544L231.692 117.069L231.814 117.004L231.969 116.448L233.042 116.282L232.92 116.087L232.424 115.933L232.538 115.601L232.912 115.901L233.352 115.763L233.563 115.824L234.006 116.274L235.21 116.169L235.462 115.832L235.877 115.844L236.463 115.162L236.353 114.895L236.495 114.667L236.78 114.724L237.065 114.436L237.203 114.266L237.215 113.917L237.402 113.872L237.557 113.515L237.659 113.422L238.053 113.54L238.244 113.341L238.582 114.371L238.407 114.436L238.399 114.769L238.13 115.029L238.378 115.698L239.139 115.682L238.915 116.306L238.984 116.619L239.338 116.968L239.765 116.927L240.148 116.643L240.428 116.899L240.884 116.258L240.709 115.897L240.77 115.771L240.965 115.483L241.295 115.3L241.417 115.576L241.347 115.905L241.445 116.457L241.819 116.773L241.787 117.029L241.99 117.621L242.511 117.747L242.645 117.67L242.742 117.868L242.624 118.079L242.775 118.27L242.376 118.639L242.474 119.84L242.242 120.23L241.799 120.278L241.803 120.936L242.039 121.211L241.905 121.467L241.705 121.033L241.124 120.737L240.973 120.806L239.505 119.686L239.314 119.929L239.302 120.153L238.932 120.071L239.387 119.593L238.879 119.305L238.667 119.272L237.927 119.495L237.073 119.885L236.845 119.633ZM243.003 121.102L242.637 121.045L242.425 121.232L242.189 120.879L242.165 120.558L242.645 120.173L243.198 120.631L243.596 120.656L244.109 120.311L244.556 120.335L244.044 120.725L243.755 120.72L243.678 120.846L243.755 121.183L243.401 121.224L243.361 120.891L243.182 120.85L242.962 120.887L243.003 121.102Z" fill="black"/>
<path d="M297.949 103.665L297.941 104.724L297.803 105.008L297.603 105.219L297.315 105.26L297.128 105.524L296.4 105.86L296.237 106.319L295.964 106.477L295.68 106.449L295.529 106.558L294.39 106.749L294.207 106.355L293.789 106.404L293.557 105.893L293.154 106.262L293.174 106.956L293 107.203L293.162 108.282L292.869 108.538L292.365 108.489L292.084 108.286L291.804 107.195L291.495 107.049L291.186 107.26L290.909 107.053L290.775 106.526L290.962 106.148L290.868 105.714L291.023 105.236L290.641 103.945L290.344 103.227L290.75 102.781L290.393 102.432L290.787 101.633L290.868 101.584L291.161 101.836L291.881 100.736L292.463 100.972L292.459 101.243L292.654 101.458L292.849 101.422L292.939 101.256L293.654 101.268L293.874 101.73L294.268 101.726L294.565 101.345L294.728 101.349L295.143 101.442L295.261 101.702L295.733 101.783L296.013 101.998L296.457 101.88L297.095 103.195L297.949 103.665Z" fill="black"/>
<path d="M307.164 80.7504L307.042 81.4442L307.058 82.2596L307.282 82.426L306.741 83.0791L306.212 82.9736L305.911 83.2008L305.314 82.7465L304.813 82.9331L304.419 82.2515L304.285 82.3935L304.028 82.4219L303.78 82.2637L303.398 82.499L303.142 82.2231L302.82 82.2961L302.637 81.9837L302.454 82.0365L302.186 81.9067L301.918 81.4361L302.157 80.15L302.438 79.9431L302.296 79.6347L302.434 79.3021L302.369 78.7706L302.58 78.4379L303.223 78.5272L303.78 78.1783L304.102 77.5332L303.634 77.0342L302.885 76.8395L302.56 76.381L302.723 75.5737L302.625 75.456L302.023 75.3262L301.287 74.9367L301.763 73.6872L302.471 73.0746L302.934 72.466L303.394 70.8108L303.642 70.3888L303.927 69.3178L303.853 69.0825L304.874 69.2488L305.025 69.0622L305.423 68.9648L305.505 69.4395L305.793 69.5125L306.115 69.7965L307.367 70.1779L307.807 70.0683L307.949 70.3807L308.38 70.4132L308.616 71.1434L309.234 71.3585L309.332 71.541L309.238 71.683L309.669 72.0968L309.747 72.5269L310.084 72.7094L309.808 73.1557L309.897 73.5492L309.722 74.0158L309.56 74.0564L309.291 73.9144L309.25 74.0077L309.499 74.5635L309.511 74.7826L309.356 75.0463L309.466 75.4155L309.71 75.5737L309.791 75.8577L309.543 76.5068L309.1 76.9693L309.165 77.2127L308.738 77.7482L308.673 78.1621L308.766 78.6611L308.315 79.3021L308.238 79.7159L307.835 79.939L307.136 79.9431L307.164 80.7504Z" fill="black"/>
<path d="M65.2424 57.2234L62.6382 87.3942C62.5112 88.9186 63.1252 89.702 64.4802 89.7443L64.0991 94L60.6692 94C58.5943 94 56.964 93.4707 55.7783 92.4121C54.4233 91.2264 53.8516 89.5538 54.0634 87.3942L56.7311 57.2234C56.9005 55.4873 56.6464 54.1322 55.9689 53.1583C55.3337 52.1844 54.508 51.6974 53.4917 51.6974L49.8077 51.7609L46.1237 94L37.6124 94L41.2964 51.4433L38.7557 51.4433L39.1368 47.1876L53.8728 47.1876C57.2604 47.1876 60.0128 48.0134 62.1301 49.6648C64.5014 51.4857 65.5389 54.0052 65.2424 57.2234ZM93.3306 47.1876L89.2654 94L80.7541 94L84.8192 47.1876L93.3306 47.1876ZM135.193 57.0328L134.557 64.6549C134.346 67.365 133.181 69.6728 131.064 71.5783C128.989 73.4839 126.596 74.4366 123.886 74.4366L118.17 74.4366L116.518 94L108.007 94L111.755 51.4433L109.277 51.4433L109.659 47.1876L126.237 47.1876C128.947 47.1876 131.17 48.1616 132.906 50.1094C134.642 52.015 135.404 54.3228 135.193 57.0328ZM126.872 55.826C126.999 54.6404 126.66 53.6241 125.855 52.7772C125.093 51.8879 124.098 51.4433 122.87 51.4433L120.202 51.4433L118.551 70.2445L121.219 70.2445C122.404 70.2445 123.463 69.821 124.395 68.9741C125.326 68.0849 125.855 67.0474 125.982 65.8618L126.872 55.826ZM178.397 57.0328L177.762 64.6549C177.55 67.365 176.385 69.6728 174.268 71.5783C172.193 73.4839 169.801 74.4366 167.091 74.4366L161.374 74.4366L159.723 94L151.211 94L154.959 51.4433L152.482 51.4433L152.863 47.1876L169.441 47.1876C172.151 47.1876 174.374 48.1616 176.11 50.1094C177.846 52.015 178.609 54.3228 178.397 57.0328ZM170.076 55.826C170.203 54.6404 169.864 53.6241 169.06 52.7772C168.298 51.8879 167.302 51.4433 166.074 51.4433L163.407 51.4433L161.755 70.2445L164.423 70.2445C165.609 70.2445 166.667 69.821 167.599 68.9741C168.53 68.0849 169.06 67.0474 169.187 65.8618L170.076 55.826ZM221.792 57.0328L219.378 84.1548C219.124 86.9496 217.917 89.2574 215.757 91.0782C213.471 93.0261 210.591 94 207.119 94L204.324 94C200.894 94 198.205 93.0261 196.258 91.0782C194.352 89.2574 193.526 86.9496 193.78 84.1548L196.131 57.0328C196.385 54.2381 197.634 51.9091 199.878 50.0459C202.165 48.1404 205.023 47.1876 208.453 47.1876L211.184 47.1876C214.614 47.1876 217.303 48.1404 219.251 50.0459C221.199 51.9091 222.046 54.2381 221.792 57.0328ZM213.407 55.826C213.492 54.6404 213.153 53.6241 212.391 52.7772C211.629 51.8879 210.655 51.4433 209.469 51.4433C208.284 51.4433 207.225 51.8879 206.293 52.7772C205.362 53.6241 204.832 54.6404 204.705 55.826L202.101 85.4251C201.974 86.6108 202.292 87.6483 203.054 88.5375C203.859 89.3844 204.875 89.8078 206.103 89.8078C207.331 89.8078 208.411 89.3844 209.342 88.5375C210.274 87.6906 210.782 86.6531 210.867 85.4251L213.407 55.826ZM265.571 57.2234L262.966 87.3942C262.839 88.9186 263.453 89.702 264.808 89.7443L264.427 94L260.997 94C258.922 94 257.292 93.4707 256.106 92.4121C254.751 91.2264 254.18 89.5538 254.391 87.3942L257.059 57.2234C257.229 55.4873 256.974 54.1322 256.297 53.1583C255.662 52.1844 254.836 51.6974 253.82 51.6974L250.136 51.7609L246.452 94L237.94 94L241.624 51.4433L239.084 51.4433L239.465 47.1876L254.201 47.1876C257.588 47.1876 260.341 48.0134 262.458 49.6648C264.829 51.4857 265.867 54.0052 265.571 57.2234ZM363.807 57.0328L361.139 87.3942C361.012 88.9186 361.626 89.702 362.981 89.7443L362.6 94L359.233 94C357.116 94 355.465 93.4707 354.279 92.4121C352.966 91.2264 352.416 89.5538 352.628 87.3942L353.58 76.5962L345.895 76.5962L344.37 94L335.923 94L339.162 57.0328C339.458 53.6452 341.089 51.0834 344.053 49.3472C346.424 47.9075 349.177 47.1876 352.31 47.1876C355.444 47.1876 358.09 47.9075 360.25 49.3472C362.917 51.1257 364.103 53.6876 363.807 57.0328ZM355.422 55.826C355.549 54.598 355.295 53.5606 354.66 52.7137C354.025 51.8668 353.115 51.4433 351.929 51.4433C350.786 51.4433 349.833 51.8668 349.071 52.7137C348.308 53.5606 347.864 54.598 347.737 55.826L346.276 72.3406L353.961 72.3406L355.422 55.826ZM391.327 47.1876L387.261 94L378.75 94L382.815 47.1876L391.327 47.1876ZM429.822 68.466C431.177 69.4823 431.855 71.0067 431.855 73.0392C431.855 73.0392 431.834 73.3992 431.791 74.119L430.648 87.3942C430.648 87.5636 430.648 87.7329 430.648 87.9023C430.648 89.1303 431.347 89.7443 432.744 89.7443L432.363 94L428.742 94C424.338 94 422.137 92.0521 422.137 88.1564C422.137 87.9023 422.158 87.6483 422.2 87.3942L423.28 74.2461C423.28 74.0343 423.28 73.8438 423.28 73.6744C423.28 72.15 422.581 71.3878 421.184 71.3878L416.611 71.3878L414.641 94L406.194 94L409.878 51.4433L407.4 51.4433L407.782 47.2512L423.089 47.2512C426.011 47.2512 428.404 47.8652 430.267 49.0932C432.426 50.5329 433.506 52.629 433.506 55.3814C433.506 61.9025 432.278 66.264 429.822 68.466ZM425.058 54.4286C425.101 53.5817 424.847 52.883 424.296 52.3326C423.746 51.7397 423.026 51.4433 422.137 51.4433L418.389 51.4433L416.992 67.1321L421.311 67.1321C423.132 67.1321 424.127 66.0735 424.296 63.9562L425.058 54.4286Z" fill="white"/>
</svg>
